%
M48
M72
T01C0.02362
T02C0.02400
T03C0.03937
T04C0.05512
%
T01
X19360Y11800
X79360Y11800
X114360Y26800
X114360Y31800
X124360Y31800
X139360Y31800
X164360Y31800
X124360Y51800
X114360Y56800
X103860Y56300
X94360Y56800
X99360Y41800
X59360Y36800
X19360Y71320
X144360Y71800
X144360Y56800
X144360Y11800
T02
X92360Y40300
X86860Y45800
T03
X23297Y50461
X23297Y33139
T04
X174360Y21800
X174360Y61800
M30
