G75*
%MOIN*%
%OFA0B0*%
%FSLAX25Y25*%
%IPPOS*%
%LPD*%
%AMOC8*
5,1,8,0,0,1.08239X$1,22.5*
%
%ADD10C,0.00000*%
%ADD11R,0.04331X0.03937*%
%ADD12R,0.03937X0.04331*%
%ADD13R,0.09449X0.07874*%
%ADD14R,0.09087X0.01969*%
%ADD15C,0.01181*%
%ADD16R,0.05906X0.01575*%
%ADD17R,0.11811X0.03937*%
%ADD18C,0.02165*%
%ADD19C,0.01600*%
%ADD20C,0.03962*%
%ADD21C,0.01200*%
%ADD22C,0.04000*%
D10*
X0004360Y0001800D02*
X0004360Y0081761D01*
X0188061Y0081761D01*
X0188061Y0001800D01*
X0004360Y0001800D01*
X0021328Y0033139D02*
X0021330Y0033227D01*
X0021336Y0033315D01*
X0021346Y0033403D01*
X0021360Y0033491D01*
X0021377Y0033577D01*
X0021399Y0033663D01*
X0021424Y0033747D01*
X0021454Y0033831D01*
X0021486Y0033913D01*
X0021523Y0033993D01*
X0021563Y0034072D01*
X0021607Y0034149D01*
X0021654Y0034224D01*
X0021704Y0034296D01*
X0021758Y0034367D01*
X0021814Y0034434D01*
X0021874Y0034500D01*
X0021936Y0034562D01*
X0022002Y0034622D01*
X0022069Y0034678D01*
X0022140Y0034732D01*
X0022212Y0034782D01*
X0022287Y0034829D01*
X0022364Y0034873D01*
X0022443Y0034913D01*
X0022523Y0034950D01*
X0022605Y0034982D01*
X0022689Y0035012D01*
X0022773Y0035037D01*
X0022859Y0035059D01*
X0022945Y0035076D01*
X0023033Y0035090D01*
X0023121Y0035100D01*
X0023209Y0035106D01*
X0023297Y0035108D01*
X0023385Y0035106D01*
X0023473Y0035100D01*
X0023561Y0035090D01*
X0023649Y0035076D01*
X0023735Y0035059D01*
X0023821Y0035037D01*
X0023905Y0035012D01*
X0023989Y0034982D01*
X0024071Y0034950D01*
X0024151Y0034913D01*
X0024230Y0034873D01*
X0024307Y0034829D01*
X0024382Y0034782D01*
X0024454Y0034732D01*
X0024525Y0034678D01*
X0024592Y0034622D01*
X0024658Y0034562D01*
X0024720Y0034500D01*
X0024780Y0034434D01*
X0024836Y0034367D01*
X0024890Y0034296D01*
X0024940Y0034224D01*
X0024987Y0034149D01*
X0025031Y0034072D01*
X0025071Y0033993D01*
X0025108Y0033913D01*
X0025140Y0033831D01*
X0025170Y0033747D01*
X0025195Y0033663D01*
X0025217Y0033577D01*
X0025234Y0033491D01*
X0025248Y0033403D01*
X0025258Y0033315D01*
X0025264Y0033227D01*
X0025266Y0033139D01*
X0025264Y0033051D01*
X0025258Y0032963D01*
X0025248Y0032875D01*
X0025234Y0032787D01*
X0025217Y0032701D01*
X0025195Y0032615D01*
X0025170Y0032531D01*
X0025140Y0032447D01*
X0025108Y0032365D01*
X0025071Y0032285D01*
X0025031Y0032206D01*
X0024987Y0032129D01*
X0024940Y0032054D01*
X0024890Y0031982D01*
X0024836Y0031911D01*
X0024780Y0031844D01*
X0024720Y0031778D01*
X0024658Y0031716D01*
X0024592Y0031656D01*
X0024525Y0031600D01*
X0024454Y0031546D01*
X0024382Y0031496D01*
X0024307Y0031449D01*
X0024230Y0031405D01*
X0024151Y0031365D01*
X0024071Y0031328D01*
X0023989Y0031296D01*
X0023905Y0031266D01*
X0023821Y0031241D01*
X0023735Y0031219D01*
X0023649Y0031202D01*
X0023561Y0031188D01*
X0023473Y0031178D01*
X0023385Y0031172D01*
X0023297Y0031170D01*
X0023209Y0031172D01*
X0023121Y0031178D01*
X0023033Y0031188D01*
X0022945Y0031202D01*
X0022859Y0031219D01*
X0022773Y0031241D01*
X0022689Y0031266D01*
X0022605Y0031296D01*
X0022523Y0031328D01*
X0022443Y0031365D01*
X0022364Y0031405D01*
X0022287Y0031449D01*
X0022212Y0031496D01*
X0022140Y0031546D01*
X0022069Y0031600D01*
X0022002Y0031656D01*
X0021936Y0031716D01*
X0021874Y0031778D01*
X0021814Y0031844D01*
X0021758Y0031911D01*
X0021704Y0031982D01*
X0021654Y0032054D01*
X0021607Y0032129D01*
X0021563Y0032206D01*
X0021523Y0032285D01*
X0021486Y0032365D01*
X0021454Y0032447D01*
X0021424Y0032531D01*
X0021399Y0032615D01*
X0021377Y0032701D01*
X0021360Y0032787D01*
X0021346Y0032875D01*
X0021336Y0032963D01*
X0021330Y0033051D01*
X0021328Y0033139D01*
X0021328Y0050461D02*
X0021330Y0050549D01*
X0021336Y0050637D01*
X0021346Y0050725D01*
X0021360Y0050813D01*
X0021377Y0050899D01*
X0021399Y0050985D01*
X0021424Y0051069D01*
X0021454Y0051153D01*
X0021486Y0051235D01*
X0021523Y0051315D01*
X0021563Y0051394D01*
X0021607Y0051471D01*
X0021654Y0051546D01*
X0021704Y0051618D01*
X0021758Y0051689D01*
X0021814Y0051756D01*
X0021874Y0051822D01*
X0021936Y0051884D01*
X0022002Y0051944D01*
X0022069Y0052000D01*
X0022140Y0052054D01*
X0022212Y0052104D01*
X0022287Y0052151D01*
X0022364Y0052195D01*
X0022443Y0052235D01*
X0022523Y0052272D01*
X0022605Y0052304D01*
X0022689Y0052334D01*
X0022773Y0052359D01*
X0022859Y0052381D01*
X0022945Y0052398D01*
X0023033Y0052412D01*
X0023121Y0052422D01*
X0023209Y0052428D01*
X0023297Y0052430D01*
X0023385Y0052428D01*
X0023473Y0052422D01*
X0023561Y0052412D01*
X0023649Y0052398D01*
X0023735Y0052381D01*
X0023821Y0052359D01*
X0023905Y0052334D01*
X0023989Y0052304D01*
X0024071Y0052272D01*
X0024151Y0052235D01*
X0024230Y0052195D01*
X0024307Y0052151D01*
X0024382Y0052104D01*
X0024454Y0052054D01*
X0024525Y0052000D01*
X0024592Y0051944D01*
X0024658Y0051884D01*
X0024720Y0051822D01*
X0024780Y0051756D01*
X0024836Y0051689D01*
X0024890Y0051618D01*
X0024940Y0051546D01*
X0024987Y0051471D01*
X0025031Y0051394D01*
X0025071Y0051315D01*
X0025108Y0051235D01*
X0025140Y0051153D01*
X0025170Y0051069D01*
X0025195Y0050985D01*
X0025217Y0050899D01*
X0025234Y0050813D01*
X0025248Y0050725D01*
X0025258Y0050637D01*
X0025264Y0050549D01*
X0025266Y0050461D01*
X0025264Y0050373D01*
X0025258Y0050285D01*
X0025248Y0050197D01*
X0025234Y0050109D01*
X0025217Y0050023D01*
X0025195Y0049937D01*
X0025170Y0049853D01*
X0025140Y0049769D01*
X0025108Y0049687D01*
X0025071Y0049607D01*
X0025031Y0049528D01*
X0024987Y0049451D01*
X0024940Y0049376D01*
X0024890Y0049304D01*
X0024836Y0049233D01*
X0024780Y0049166D01*
X0024720Y0049100D01*
X0024658Y0049038D01*
X0024592Y0048978D01*
X0024525Y0048922D01*
X0024454Y0048868D01*
X0024382Y0048818D01*
X0024307Y0048771D01*
X0024230Y0048727D01*
X0024151Y0048687D01*
X0024071Y0048650D01*
X0023989Y0048618D01*
X0023905Y0048588D01*
X0023821Y0048563D01*
X0023735Y0048541D01*
X0023649Y0048524D01*
X0023561Y0048510D01*
X0023473Y0048500D01*
X0023385Y0048494D01*
X0023297Y0048492D01*
X0023209Y0048494D01*
X0023121Y0048500D01*
X0023033Y0048510D01*
X0022945Y0048524D01*
X0022859Y0048541D01*
X0022773Y0048563D01*
X0022689Y0048588D01*
X0022605Y0048618D01*
X0022523Y0048650D01*
X0022443Y0048687D01*
X0022364Y0048727D01*
X0022287Y0048771D01*
X0022212Y0048818D01*
X0022140Y0048868D01*
X0022069Y0048922D01*
X0022002Y0048978D01*
X0021936Y0049038D01*
X0021874Y0049100D01*
X0021814Y0049166D01*
X0021758Y0049233D01*
X0021704Y0049304D01*
X0021654Y0049376D01*
X0021607Y0049451D01*
X0021563Y0049528D01*
X0021523Y0049607D01*
X0021486Y0049687D01*
X0021454Y0049769D01*
X0021424Y0049853D01*
X0021399Y0049937D01*
X0021377Y0050023D01*
X0021360Y0050109D01*
X0021346Y0050197D01*
X0021336Y0050285D01*
X0021330Y0050373D01*
X0021328Y0050461D01*
X0171604Y0061800D02*
X0171606Y0061905D01*
X0171612Y0062010D01*
X0171622Y0062114D01*
X0171636Y0062218D01*
X0171654Y0062322D01*
X0171676Y0062424D01*
X0171701Y0062526D01*
X0171731Y0062627D01*
X0171764Y0062726D01*
X0171801Y0062824D01*
X0171842Y0062921D01*
X0171887Y0063016D01*
X0171935Y0063109D01*
X0171986Y0063201D01*
X0172042Y0063290D01*
X0172100Y0063377D01*
X0172162Y0063462D01*
X0172226Y0063545D01*
X0172294Y0063625D01*
X0172365Y0063702D01*
X0172439Y0063776D01*
X0172516Y0063848D01*
X0172595Y0063917D01*
X0172677Y0063982D01*
X0172761Y0064045D01*
X0172848Y0064104D01*
X0172937Y0064160D01*
X0173028Y0064213D01*
X0173121Y0064262D01*
X0173215Y0064307D01*
X0173311Y0064349D01*
X0173409Y0064387D01*
X0173508Y0064421D01*
X0173609Y0064452D01*
X0173710Y0064478D01*
X0173813Y0064501D01*
X0173916Y0064520D01*
X0174020Y0064535D01*
X0174124Y0064546D01*
X0174229Y0064553D01*
X0174334Y0064556D01*
X0174439Y0064555D01*
X0174544Y0064550D01*
X0174648Y0064541D01*
X0174752Y0064528D01*
X0174856Y0064511D01*
X0174959Y0064490D01*
X0175061Y0064465D01*
X0175162Y0064437D01*
X0175261Y0064404D01*
X0175360Y0064368D01*
X0175457Y0064328D01*
X0175552Y0064285D01*
X0175646Y0064237D01*
X0175738Y0064187D01*
X0175828Y0064133D01*
X0175916Y0064075D01*
X0176001Y0064014D01*
X0176084Y0063950D01*
X0176165Y0063883D01*
X0176243Y0063813D01*
X0176318Y0063739D01*
X0176390Y0063664D01*
X0176460Y0063585D01*
X0176526Y0063504D01*
X0176590Y0063420D01*
X0176650Y0063334D01*
X0176706Y0063246D01*
X0176760Y0063155D01*
X0176810Y0063063D01*
X0176856Y0062969D01*
X0176899Y0062873D01*
X0176938Y0062775D01*
X0176973Y0062677D01*
X0177004Y0062576D01*
X0177032Y0062475D01*
X0177056Y0062373D01*
X0177076Y0062270D01*
X0177092Y0062166D01*
X0177104Y0062062D01*
X0177112Y0061957D01*
X0177116Y0061852D01*
X0177116Y0061748D01*
X0177112Y0061643D01*
X0177104Y0061538D01*
X0177092Y0061434D01*
X0177076Y0061330D01*
X0177056Y0061227D01*
X0177032Y0061125D01*
X0177004Y0061024D01*
X0176973Y0060923D01*
X0176938Y0060825D01*
X0176899Y0060727D01*
X0176856Y0060631D01*
X0176810Y0060537D01*
X0176760Y0060445D01*
X0176706Y0060354D01*
X0176650Y0060266D01*
X0176590Y0060180D01*
X0176526Y0060096D01*
X0176460Y0060015D01*
X0176390Y0059936D01*
X0176318Y0059861D01*
X0176243Y0059787D01*
X0176165Y0059717D01*
X0176084Y0059650D01*
X0176001Y0059586D01*
X0175916Y0059525D01*
X0175828Y0059467D01*
X0175738Y0059413D01*
X0175646Y0059363D01*
X0175552Y0059315D01*
X0175457Y0059272D01*
X0175360Y0059232D01*
X0175261Y0059196D01*
X0175162Y0059163D01*
X0175061Y0059135D01*
X0174959Y0059110D01*
X0174856Y0059089D01*
X0174752Y0059072D01*
X0174648Y0059059D01*
X0174544Y0059050D01*
X0174439Y0059045D01*
X0174334Y0059044D01*
X0174229Y0059047D01*
X0174124Y0059054D01*
X0174020Y0059065D01*
X0173916Y0059080D01*
X0173813Y0059099D01*
X0173710Y0059122D01*
X0173609Y0059148D01*
X0173508Y0059179D01*
X0173409Y0059213D01*
X0173311Y0059251D01*
X0173215Y0059293D01*
X0173121Y0059338D01*
X0173028Y0059387D01*
X0172937Y0059440D01*
X0172848Y0059496D01*
X0172761Y0059555D01*
X0172677Y0059618D01*
X0172595Y0059683D01*
X0172516Y0059752D01*
X0172439Y0059824D01*
X0172365Y0059898D01*
X0172294Y0059975D01*
X0172226Y0060055D01*
X0172162Y0060138D01*
X0172100Y0060223D01*
X0172042Y0060310D01*
X0171986Y0060399D01*
X0171935Y0060491D01*
X0171887Y0060584D01*
X0171842Y0060679D01*
X0171801Y0060776D01*
X0171764Y0060874D01*
X0171731Y0060973D01*
X0171701Y0061074D01*
X0171676Y0061176D01*
X0171654Y0061278D01*
X0171636Y0061382D01*
X0171622Y0061486D01*
X0171612Y0061590D01*
X0171606Y0061695D01*
X0171604Y0061800D01*
X0171604Y0021800D02*
X0171606Y0021905D01*
X0171612Y0022010D01*
X0171622Y0022114D01*
X0171636Y0022218D01*
X0171654Y0022322D01*
X0171676Y0022424D01*
X0171701Y0022526D01*
X0171731Y0022627D01*
X0171764Y0022726D01*
X0171801Y0022824D01*
X0171842Y0022921D01*
X0171887Y0023016D01*
X0171935Y0023109D01*
X0171986Y0023201D01*
X0172042Y0023290D01*
X0172100Y0023377D01*
X0172162Y0023462D01*
X0172226Y0023545D01*
X0172294Y0023625D01*
X0172365Y0023702D01*
X0172439Y0023776D01*
X0172516Y0023848D01*
X0172595Y0023917D01*
X0172677Y0023982D01*
X0172761Y0024045D01*
X0172848Y0024104D01*
X0172937Y0024160D01*
X0173028Y0024213D01*
X0173121Y0024262D01*
X0173215Y0024307D01*
X0173311Y0024349D01*
X0173409Y0024387D01*
X0173508Y0024421D01*
X0173609Y0024452D01*
X0173710Y0024478D01*
X0173813Y0024501D01*
X0173916Y0024520D01*
X0174020Y0024535D01*
X0174124Y0024546D01*
X0174229Y0024553D01*
X0174334Y0024556D01*
X0174439Y0024555D01*
X0174544Y0024550D01*
X0174648Y0024541D01*
X0174752Y0024528D01*
X0174856Y0024511D01*
X0174959Y0024490D01*
X0175061Y0024465D01*
X0175162Y0024437D01*
X0175261Y0024404D01*
X0175360Y0024368D01*
X0175457Y0024328D01*
X0175552Y0024285D01*
X0175646Y0024237D01*
X0175738Y0024187D01*
X0175828Y0024133D01*
X0175916Y0024075D01*
X0176001Y0024014D01*
X0176084Y0023950D01*
X0176165Y0023883D01*
X0176243Y0023813D01*
X0176318Y0023739D01*
X0176390Y0023664D01*
X0176460Y0023585D01*
X0176526Y0023504D01*
X0176590Y0023420D01*
X0176650Y0023334D01*
X0176706Y0023246D01*
X0176760Y0023155D01*
X0176810Y0023063D01*
X0176856Y0022969D01*
X0176899Y0022873D01*
X0176938Y0022775D01*
X0176973Y0022677D01*
X0177004Y0022576D01*
X0177032Y0022475D01*
X0177056Y0022373D01*
X0177076Y0022270D01*
X0177092Y0022166D01*
X0177104Y0022062D01*
X0177112Y0021957D01*
X0177116Y0021852D01*
X0177116Y0021748D01*
X0177112Y0021643D01*
X0177104Y0021538D01*
X0177092Y0021434D01*
X0177076Y0021330D01*
X0177056Y0021227D01*
X0177032Y0021125D01*
X0177004Y0021024D01*
X0176973Y0020923D01*
X0176938Y0020825D01*
X0176899Y0020727D01*
X0176856Y0020631D01*
X0176810Y0020537D01*
X0176760Y0020445D01*
X0176706Y0020354D01*
X0176650Y0020266D01*
X0176590Y0020180D01*
X0176526Y0020096D01*
X0176460Y0020015D01*
X0176390Y0019936D01*
X0176318Y0019861D01*
X0176243Y0019787D01*
X0176165Y0019717D01*
X0176084Y0019650D01*
X0176001Y0019586D01*
X0175916Y0019525D01*
X0175828Y0019467D01*
X0175738Y0019413D01*
X0175646Y0019363D01*
X0175552Y0019315D01*
X0175457Y0019272D01*
X0175360Y0019232D01*
X0175261Y0019196D01*
X0175162Y0019163D01*
X0175061Y0019135D01*
X0174959Y0019110D01*
X0174856Y0019089D01*
X0174752Y0019072D01*
X0174648Y0019059D01*
X0174544Y0019050D01*
X0174439Y0019045D01*
X0174334Y0019044D01*
X0174229Y0019047D01*
X0174124Y0019054D01*
X0174020Y0019065D01*
X0173916Y0019080D01*
X0173813Y0019099D01*
X0173710Y0019122D01*
X0173609Y0019148D01*
X0173508Y0019179D01*
X0173409Y0019213D01*
X0173311Y0019251D01*
X0173215Y0019293D01*
X0173121Y0019338D01*
X0173028Y0019387D01*
X0172937Y0019440D01*
X0172848Y0019496D01*
X0172761Y0019555D01*
X0172677Y0019618D01*
X0172595Y0019683D01*
X0172516Y0019752D01*
X0172439Y0019824D01*
X0172365Y0019898D01*
X0172294Y0019975D01*
X0172226Y0020055D01*
X0172162Y0020138D01*
X0172100Y0020223D01*
X0172042Y0020310D01*
X0171986Y0020399D01*
X0171935Y0020491D01*
X0171887Y0020584D01*
X0171842Y0020679D01*
X0171801Y0020776D01*
X0171764Y0020874D01*
X0171731Y0020973D01*
X0171701Y0021074D01*
X0171676Y0021176D01*
X0171654Y0021278D01*
X0171636Y0021382D01*
X0171622Y0021486D01*
X0171612Y0021590D01*
X0171606Y0021695D01*
X0171604Y0021800D01*
D11*
X0127707Y0061800D03*
X0121014Y0061800D03*
X0121014Y0071800D03*
X0127707Y0071800D03*
X0097707Y0066800D03*
X0091014Y0066800D03*
X0051507Y0064240D03*
X0044814Y0064240D03*
D12*
X0089360Y0035146D03*
X0089360Y0028454D03*
X0069360Y0030146D03*
X0054360Y0030146D03*
X0054360Y0023454D03*
X0069360Y0023454D03*
D13*
X0033140Y0024477D03*
X0011486Y0024477D03*
X0011486Y0059123D03*
X0033140Y0059123D03*
D14*
X0035360Y0048099D03*
X0035360Y0044950D03*
X0035360Y0041800D03*
X0035360Y0038650D03*
X0035360Y0035501D03*
D15*
X0107285Y0060422D02*
X0107285Y0063178D01*
X0107285Y0060422D02*
X0104529Y0060422D01*
X0104529Y0063178D01*
X0107285Y0063178D01*
X0107285Y0061602D02*
X0104529Y0061602D01*
X0104529Y0062782D02*
X0107285Y0062782D01*
X0114191Y0063178D02*
X0114191Y0060422D01*
X0111435Y0060422D01*
X0111435Y0063178D01*
X0114191Y0063178D01*
X0114191Y0061602D02*
X0111435Y0061602D01*
X0111435Y0062782D02*
X0114191Y0062782D01*
X0114191Y0070422D02*
X0114191Y0073178D01*
X0114191Y0070422D02*
X0111435Y0070422D01*
X0111435Y0073178D01*
X0114191Y0073178D01*
X0114191Y0071602D02*
X0111435Y0071602D01*
X0111435Y0072782D02*
X0114191Y0072782D01*
X0107285Y0073178D02*
X0107285Y0070422D01*
X0104529Y0070422D01*
X0104529Y0073178D01*
X0107285Y0073178D01*
X0107285Y0071602D02*
X0104529Y0071602D01*
X0104529Y0072782D02*
X0107285Y0072782D01*
D16*
X0105089Y0048434D03*
X0105089Y0045875D03*
X0105089Y0043316D03*
X0105089Y0040757D03*
X0105089Y0038198D03*
X0105089Y0035639D03*
X0105089Y0033080D03*
X0105089Y0030520D03*
X0105089Y0027961D03*
X0105089Y0025402D03*
X0105089Y0022843D03*
X0105089Y0020284D03*
X0105089Y0017725D03*
X0105089Y0015166D03*
X0133632Y0015166D03*
X0133632Y0017725D03*
X0133632Y0020284D03*
X0133632Y0022843D03*
X0133632Y0025402D03*
X0133632Y0027961D03*
X0133632Y0030520D03*
X0133632Y0033080D03*
X0133632Y0035639D03*
X0133632Y0038198D03*
X0133632Y0040757D03*
X0133632Y0043316D03*
X0133632Y0045875D03*
X0133632Y0048434D03*
D17*
X0154675Y0046800D03*
X0154675Y0036800D03*
X0154675Y0026800D03*
X0154675Y0016800D03*
X0154675Y0056800D03*
X0154675Y0066800D03*
D18*
X0081959Y0069063D02*
X0059321Y0069063D01*
X0059321Y0075559D01*
X0081959Y0075559D01*
X0081959Y0069063D01*
X0081959Y0071227D02*
X0059321Y0071227D01*
X0059321Y0073391D02*
X0081959Y0073391D01*
X0081959Y0075555D02*
X0059321Y0075555D01*
X0059321Y0059417D02*
X0081959Y0059417D01*
X0081959Y0052921D01*
X0059321Y0052921D01*
X0059321Y0059417D01*
X0059321Y0055085D02*
X0081959Y0055085D01*
X0081959Y0057249D02*
X0059321Y0057249D01*
X0059321Y0059413D02*
X0081959Y0059413D01*
D19*
X0084842Y0057987D02*
X0089886Y0063031D01*
X0093925Y0063031D01*
X0094360Y0063467D01*
X0094436Y0063391D01*
X0094847Y0063154D01*
X0095304Y0063031D01*
X0097522Y0063031D01*
X0097522Y0066616D01*
X0097891Y0066616D01*
X0097891Y0063031D01*
X0099860Y0063031D01*
X0099860Y0057423D01*
X0100079Y0056894D01*
X0100079Y0055548D01*
X0100655Y0054158D01*
X0101718Y0053095D01*
X0103108Y0052519D01*
X0104612Y0052519D01*
X0106002Y0053095D01*
X0107066Y0054158D01*
X0107517Y0055249D01*
X0108001Y0054765D01*
X0108883Y0054400D01*
X0111413Y0054400D01*
X0112218Y0053595D01*
X0113608Y0053019D01*
X0115112Y0053019D01*
X0116502Y0053595D01*
X0117566Y0054658D01*
X0118141Y0056048D01*
X0118141Y0057552D01*
X0117830Y0058305D01*
X0118103Y0058031D01*
X0123925Y0058031D01*
X0124360Y0058467D01*
X0124796Y0058031D01*
X0128435Y0058031D01*
X0135445Y0051021D01*
X0129934Y0051021D01*
X0128879Y0049967D01*
X0128879Y0043157D01*
X0126760Y0043157D01*
X0126760Y0048853D01*
X0127566Y0049658D01*
X0128141Y0051048D01*
X0128141Y0052552D01*
X0127566Y0053942D01*
X0126502Y0055005D01*
X0125112Y0055581D01*
X0123608Y0055581D01*
X0122218Y0055005D01*
X0121155Y0053942D01*
X0120579Y0052552D01*
X0120579Y0051048D01*
X0121155Y0049658D01*
X0121960Y0048853D01*
X0121960Y0041323D01*
X0122326Y0040441D01*
X0123001Y0039765D01*
X0124044Y0038722D01*
X0124926Y0038357D01*
X0128879Y0038357D01*
X0128879Y0031547D01*
X0128879Y0031546D01*
X0128879Y0031545D01*
X0128879Y0030521D01*
X0129905Y0030521D01*
X0129905Y0030520D01*
X0128879Y0030520D01*
X0128879Y0029496D01*
X0128879Y0029495D01*
X0128879Y0029494D01*
X0128879Y0024933D01*
X0128401Y0024735D01*
X0127726Y0024059D01*
X0117766Y0014100D01*
X0109841Y0014100D01*
X0109841Y0019258D01*
X0109841Y0019259D01*
X0109841Y0019260D01*
X0109841Y0020284D01*
X0108815Y0020284D01*
X0109841Y0020284D01*
X0109841Y0021309D01*
X0109773Y0021564D01*
X0109841Y0021819D01*
X0109841Y0022843D01*
X0108815Y0022843D01*
X0108815Y0022843D01*
X0109841Y0022843D01*
X0109841Y0023868D01*
X0109841Y0023869D01*
X0109841Y0023869D01*
X0109841Y0025561D01*
X0110781Y0025561D01*
X0111155Y0024658D01*
X0112218Y0023595D01*
X0113608Y0023019D01*
X0115112Y0023019D01*
X0116502Y0023595D01*
X0117566Y0024658D01*
X0118141Y0026048D01*
X0118141Y0027552D01*
X0117566Y0028942D01*
X0117208Y0029300D01*
X0117566Y0029658D01*
X0118141Y0031048D01*
X0118141Y0032552D01*
X0117566Y0033942D01*
X0116502Y0035005D01*
X0115112Y0035581D01*
X0113608Y0035581D01*
X0112218Y0035005D01*
X0111155Y0033942D01*
X0110682Y0032800D01*
X0109841Y0032800D01*
X0109841Y0033079D01*
X0108815Y0033079D01*
X0108815Y0033080D01*
X0109841Y0033080D01*
X0109841Y0034104D01*
X0109841Y0034105D01*
X0109841Y0034106D01*
X0109841Y0039731D01*
X0109841Y0039732D01*
X0109841Y0040757D01*
X0109841Y0041781D01*
X0109841Y0041782D01*
X0109841Y0041783D01*
X0109841Y0049967D01*
X0108787Y0051021D01*
X0101390Y0051021D01*
X0101203Y0050834D01*
X0094517Y0050834D01*
X0093635Y0050468D01*
X0092959Y0049793D01*
X0090385Y0047219D01*
X0090082Y0047953D01*
X0089013Y0049021D01*
X0087616Y0049600D01*
X0086104Y0049600D01*
X0084708Y0049021D01*
X0083639Y0047953D01*
X0083353Y0047263D01*
X0082336Y0046961D01*
X0072747Y0046993D01*
X0075793Y0050038D01*
X0082533Y0050038D01*
X0083592Y0050477D01*
X0084403Y0051288D01*
X0084842Y0052348D01*
X0084842Y0057987D01*
X0084842Y0057748D02*
X0099860Y0057748D01*
X0099860Y0059346D02*
X0086201Y0059346D01*
X0087799Y0060945D02*
X0099860Y0060945D01*
X0099860Y0062543D02*
X0089398Y0062543D01*
X0084208Y0064142D02*
X0057449Y0064142D01*
X0055472Y0063308D02*
X0062281Y0066180D01*
X0082533Y0066180D01*
X0083592Y0066619D01*
X0084403Y0067430D01*
X0084842Y0068489D01*
X0084842Y0072074D01*
X0089917Y0072857D01*
X0092474Y0073100D01*
X0102139Y0073100D01*
X0102139Y0069947D01*
X0102503Y0069068D01*
X0102968Y0068602D01*
X0101672Y0067306D01*
X0101672Y0069005D01*
X0101549Y0069463D01*
X0101312Y0069874D01*
X0100977Y0070209D01*
X0100567Y0070446D01*
X0100109Y0070568D01*
X0097891Y0070568D01*
X0097891Y0066984D01*
X0097522Y0066984D01*
X0097522Y0070568D01*
X0095304Y0070568D01*
X0094847Y0070446D01*
X0094436Y0070209D01*
X0094360Y0070133D01*
X0093925Y0070568D01*
X0088103Y0070568D01*
X0087048Y0069514D01*
X0087048Y0066982D01*
X0082366Y0062300D01*
X0058748Y0062300D01*
X0057688Y0061861D01*
X0056878Y0061050D01*
X0056439Y0059991D01*
X0056439Y0052348D01*
X0056878Y0051288D01*
X0057688Y0050477D01*
X0057875Y0050400D01*
X0041133Y0050400D01*
X0040649Y0050883D01*
X0030071Y0050883D01*
X0030066Y0050878D01*
X0030066Y0051808D01*
X0029412Y0053386D01*
X0038610Y0053386D01*
X0039664Y0054440D01*
X0039664Y0063805D01*
X0038610Y0064860D01*
X0027670Y0064860D01*
X0026615Y0063805D01*
X0026615Y0056413D01*
X0024644Y0057230D01*
X0021951Y0057230D01*
X0019463Y0056199D01*
X0018011Y0054747D01*
X0018011Y0063805D01*
X0016956Y0064860D01*
X0009160Y0064860D01*
X0009160Y0076961D01*
X0056782Y0076961D01*
X0056439Y0076132D01*
X0056439Y0068925D01*
X0054266Y0068008D01*
X0048596Y0068008D01*
X0048160Y0067573D01*
X0048084Y0067649D01*
X0047674Y0067886D01*
X0047216Y0068008D01*
X0044998Y0068008D01*
X0044998Y0064424D01*
X0044630Y0064424D01*
X0044630Y0068008D01*
X0042411Y0068008D01*
X0041954Y0067886D01*
X0041543Y0067649D01*
X0041208Y0067314D01*
X0040971Y0066903D01*
X0040848Y0066445D01*
X0040848Y0064424D01*
X0044629Y0064424D01*
X0044629Y0064056D01*
X0040848Y0064056D01*
X0040848Y0062035D01*
X0040971Y0061577D01*
X0041208Y0061166D01*
X0041543Y0060831D01*
X0041954Y0060594D01*
X0042411Y0060471D01*
X0044630Y0060471D01*
X0044630Y0064056D01*
X0044998Y0064056D01*
X0044998Y0060471D01*
X0047216Y0060471D01*
X0047674Y0060594D01*
X0048084Y0060831D01*
X0048160Y0060907D01*
X0048596Y0060471D01*
X0054418Y0060471D01*
X0055472Y0061526D01*
X0055472Y0063308D01*
X0055472Y0062543D02*
X0082610Y0062543D01*
X0085807Y0065740D02*
X0061239Y0065740D01*
X0056439Y0068937D02*
X0009160Y0068937D01*
X0009160Y0067339D02*
X0041233Y0067339D01*
X0044630Y0067339D02*
X0044998Y0067339D01*
X0044998Y0065740D02*
X0044630Y0065740D01*
X0040848Y0065740D02*
X0009160Y0065740D01*
X0017674Y0064142D02*
X0026952Y0064142D01*
X0026615Y0062543D02*
X0018011Y0062543D01*
X0018011Y0060945D02*
X0026615Y0060945D01*
X0026615Y0059346D02*
X0018011Y0059346D01*
X0018011Y0057748D02*
X0026615Y0057748D01*
X0019413Y0056149D02*
X0018011Y0056149D01*
X0029592Y0052952D02*
X0056439Y0052952D01*
X0056439Y0054551D02*
X0039664Y0054551D01*
X0039664Y0056149D02*
X0056439Y0056149D01*
X0056439Y0057748D02*
X0039664Y0057748D01*
X0039664Y0059346D02*
X0056439Y0059346D01*
X0056834Y0060945D02*
X0054891Y0060945D01*
X0044998Y0060945D02*
X0044630Y0060945D01*
X0041429Y0060945D02*
X0039664Y0060945D01*
X0039664Y0062543D02*
X0040848Y0062543D01*
X0044630Y0062543D02*
X0044998Y0062543D01*
X0044629Y0064142D02*
X0039328Y0064142D01*
X0056439Y0070536D02*
X0009160Y0070536D01*
X0009160Y0072134D02*
X0056439Y0072134D01*
X0056439Y0073733D02*
X0009160Y0073733D01*
X0009160Y0075332D02*
X0056439Y0075332D01*
X0056769Y0076930D02*
X0009160Y0076930D01*
X0030066Y0051354D02*
X0056850Y0051354D01*
X0073911Y0048157D02*
X0083843Y0048157D01*
X0089877Y0048157D02*
X0091323Y0048157D01*
X0092921Y0049755D02*
X0075510Y0049755D01*
X0084430Y0051354D02*
X0120579Y0051354D01*
X0120745Y0052952D02*
X0105659Y0052952D01*
X0107228Y0054551D02*
X0108519Y0054551D01*
X0102062Y0052952D02*
X0084842Y0052952D01*
X0084842Y0054551D02*
X0100492Y0054551D01*
X0100079Y0056149D02*
X0084842Y0056149D01*
X0097522Y0064142D02*
X0097891Y0064142D01*
X0097891Y0065740D02*
X0097522Y0065740D01*
X0097522Y0067339D02*
X0097891Y0067339D01*
X0097891Y0068937D02*
X0097522Y0068937D01*
X0097522Y0070536D02*
X0097891Y0070536D01*
X0095183Y0070536D02*
X0093957Y0070536D01*
X0088070Y0070536D02*
X0084842Y0070536D01*
X0084842Y0068937D02*
X0087048Y0068937D01*
X0087048Y0067339D02*
X0084312Y0067339D01*
X0085233Y0072134D02*
X0102139Y0072134D01*
X0102139Y0070536D02*
X0100230Y0070536D01*
X0101672Y0068937D02*
X0102633Y0068937D01*
X0101705Y0067339D02*
X0101672Y0067339D01*
X0118060Y0057748D02*
X0128718Y0057748D01*
X0130317Y0056149D02*
X0118141Y0056149D01*
X0117458Y0054551D02*
X0121764Y0054551D01*
X0126957Y0054551D02*
X0131915Y0054551D01*
X0133514Y0052952D02*
X0127976Y0052952D01*
X0128141Y0051354D02*
X0135112Y0051354D01*
X0140302Y0052952D02*
X0183261Y0052952D01*
X0183261Y0051354D02*
X0141900Y0051354D01*
X0143499Y0049755D02*
X0147211Y0049755D01*
X0146970Y0049514D02*
X0148024Y0050568D01*
X0161326Y0050568D01*
X0162381Y0049514D01*
X0162381Y0044086D01*
X0161326Y0043031D01*
X0153486Y0043031D01*
X0151023Y0040568D01*
X0161326Y0040568D01*
X0162381Y0039514D01*
X0162381Y0035073D01*
X0163608Y0035581D01*
X0165112Y0035581D01*
X0166502Y0035005D01*
X0167566Y0033942D01*
X0168141Y0032552D01*
X0168141Y0031048D01*
X0167566Y0029658D01*
X0166502Y0028595D01*
X0165112Y0028019D01*
X0163608Y0028019D01*
X0162819Y0028346D01*
X0162381Y0028127D01*
X0162381Y0024086D01*
X0161326Y0023031D01*
X0148540Y0023031D01*
X0148295Y0022441D01*
X0147620Y0021765D01*
X0145054Y0019200D01*
X0146970Y0019200D01*
X0146970Y0019514D01*
X0148024Y0020568D01*
X0161326Y0020568D01*
X0162381Y0019514D01*
X0162381Y0014086D01*
X0161326Y0013031D01*
X0148024Y0013031D01*
X0146970Y0014086D01*
X0146970Y0014400D01*
X0145354Y0014400D01*
X0141315Y0010361D01*
X0141315Y0010361D01*
X0141310Y0010356D01*
X0141096Y0009985D01*
X0141096Y0009985D01*
X0141096Y0009985D01*
X0140725Y0009770D01*
X0140640Y0009685D01*
X0140420Y0009594D01*
X0139945Y0009320D01*
X0128630Y0009320D01*
X0126836Y0010063D01*
X0126836Y0010063D01*
X0125463Y0011436D01*
X0125463Y0011436D01*
X0124720Y0013229D01*
X0124720Y0014266D01*
X0120120Y0009665D01*
X0119238Y0009300D01*
X0101783Y0009300D01*
X0100901Y0009665D01*
X0100226Y0010341D01*
X0088126Y0022441D01*
X0087760Y0023323D01*
X0087760Y0024488D01*
X0086646Y0024488D01*
X0085592Y0025543D01*
X0085592Y0026900D01*
X0072793Y0026900D01*
X0072693Y0026800D01*
X0072769Y0026724D01*
X0073006Y0026314D01*
X0073129Y0025856D01*
X0073129Y0023638D01*
X0069545Y0023638D01*
X0069545Y0023269D01*
X0073129Y0023269D01*
X0073129Y0021051D01*
X0073006Y0020593D01*
X0072769Y0020183D01*
X0072434Y0019848D01*
X0072024Y0019611D01*
X0071566Y0019488D01*
X0069544Y0019488D01*
X0069544Y0023269D01*
X0069176Y0023269D01*
X0069176Y0019488D01*
X0067155Y0019488D01*
X0066697Y0019611D01*
X0066287Y0019848D01*
X0065951Y0020183D01*
X0065714Y0020593D01*
X0065592Y0021051D01*
X0065592Y0023269D01*
X0069176Y0023269D01*
X0069176Y0023638D01*
X0065592Y0023638D01*
X0065592Y0025856D01*
X0065714Y0026314D01*
X0065951Y0026724D01*
X0066027Y0026800D01*
X0065592Y0027236D01*
X0065592Y0033057D01*
X0066646Y0034112D01*
X0072074Y0034112D01*
X0073129Y0033057D01*
X0073129Y0031700D01*
X0085927Y0031700D01*
X0086027Y0031800D01*
X0085592Y0032236D01*
X0085592Y0038057D01*
X0086534Y0039000D01*
X0062507Y0039000D01*
X0062566Y0038942D01*
X0063141Y0037552D01*
X0063141Y0036048D01*
X0062566Y0034658D01*
X0061502Y0033595D01*
X0060991Y0033383D01*
X0058129Y0030521D01*
X0058129Y0027236D01*
X0057693Y0026800D01*
X0057769Y0026724D01*
X0058006Y0026314D01*
X0058129Y0025856D01*
X0058129Y0023638D01*
X0054545Y0023638D01*
X0054545Y0023269D01*
X0058129Y0023269D01*
X0058129Y0021051D01*
X0058006Y0020593D01*
X0057769Y0020183D01*
X0057434Y0019848D01*
X0057024Y0019611D01*
X0056566Y0019488D01*
X0054544Y0019488D01*
X0054544Y0023269D01*
X0054176Y0023269D01*
X0054176Y0019488D01*
X0052155Y0019488D01*
X0051697Y0019611D01*
X0051287Y0019848D01*
X0050951Y0020183D01*
X0050714Y0020593D01*
X0050592Y0021051D01*
X0050592Y0023269D01*
X0054176Y0023269D01*
X0054176Y0023638D01*
X0050592Y0023638D01*
X0050592Y0025856D01*
X0050714Y0026314D01*
X0050951Y0026724D01*
X0051027Y0026800D01*
X0050592Y0027236D01*
X0050592Y0033057D01*
X0051646Y0034112D01*
X0054931Y0034112D01*
X0055957Y0035137D01*
X0055579Y0036048D01*
X0055579Y0037552D01*
X0056155Y0038942D01*
X0056213Y0039000D01*
X0041704Y0039000D01*
X0041704Y0036921D01*
X0041662Y0036879D01*
X0041704Y0036722D01*
X0041704Y0035501D01*
X0035360Y0035501D01*
X0035360Y0035501D01*
X0035360Y0032717D01*
X0030580Y0032717D01*
X0030122Y0032839D01*
X0030066Y0032872D01*
X0030066Y0031792D01*
X0029412Y0030214D01*
X0038610Y0030214D01*
X0039664Y0029160D01*
X0039664Y0019795D01*
X0038610Y0018740D01*
X0027670Y0018740D01*
X0026615Y0019795D01*
X0026615Y0027187D01*
X0024644Y0026370D01*
X0021951Y0026370D01*
X0019463Y0027401D01*
X0018011Y0028853D01*
X0018011Y0019795D01*
X0016956Y0018740D01*
X0009160Y0018740D01*
X0009160Y0006600D01*
X0183261Y0006600D01*
X0183261Y0076961D01*
X0126194Y0076961D01*
X0127586Y0075568D01*
X0130618Y0075568D01*
X0131672Y0074514D01*
X0131672Y0069086D01*
X0131060Y0068474D01*
X0131060Y0065126D01*
X0131672Y0064514D01*
X0131672Y0061582D01*
X0146970Y0046285D01*
X0146970Y0049514D01*
X0146970Y0048157D02*
X0145098Y0048157D01*
X0146696Y0046558D02*
X0146970Y0046558D01*
X0152217Y0041763D02*
X0183261Y0041763D01*
X0183261Y0040164D02*
X0161731Y0040164D01*
X0162381Y0038566D02*
X0183261Y0038566D01*
X0183261Y0036967D02*
X0162381Y0036967D01*
X0162381Y0035369D02*
X0163095Y0035369D01*
X0165625Y0035369D02*
X0183261Y0035369D01*
X0183261Y0033770D02*
X0167637Y0033770D01*
X0168141Y0032172D02*
X0183261Y0032172D01*
X0183261Y0030573D02*
X0167945Y0030573D01*
X0166882Y0028975D02*
X0171937Y0028975D01*
X0172857Y0029356D02*
X0170080Y0028206D01*
X0167955Y0026080D01*
X0166804Y0023303D01*
X0166804Y0020297D01*
X0167955Y0017520D01*
X0170080Y0015394D01*
X0172857Y0014244D01*
X0175863Y0014244D01*
X0178640Y0015394D01*
X0180766Y0017520D01*
X0181916Y0020297D01*
X0181916Y0023303D01*
X0180766Y0026080D01*
X0178640Y0028206D01*
X0175863Y0029356D01*
X0172857Y0029356D01*
X0176784Y0028975D02*
X0183261Y0028975D01*
X0183261Y0027376D02*
X0179470Y0027376D01*
X0180891Y0025778D02*
X0183261Y0025778D01*
X0183261Y0024179D02*
X0181553Y0024179D01*
X0181916Y0022581D02*
X0183261Y0022581D01*
X0183261Y0020982D02*
X0181916Y0020982D01*
X0181538Y0019384D02*
X0183261Y0019384D01*
X0183261Y0017785D02*
X0180876Y0017785D01*
X0179432Y0016187D02*
X0183261Y0016187D01*
X0183261Y0014588D02*
X0176694Y0014588D01*
X0172027Y0014588D02*
X0162381Y0014588D01*
X0162381Y0016187D02*
X0169288Y0016187D01*
X0167845Y0017785D02*
X0162381Y0017785D01*
X0162381Y0019384D02*
X0167183Y0019384D01*
X0166804Y0020982D02*
X0146836Y0020982D01*
X0146970Y0019384D02*
X0145238Y0019384D01*
X0148353Y0022581D02*
X0166804Y0022581D01*
X0167167Y0024179D02*
X0162381Y0024179D01*
X0162381Y0025778D02*
X0167829Y0025778D01*
X0169251Y0027376D02*
X0162381Y0027376D01*
X0129905Y0030520D02*
X0129905Y0030520D01*
X0128879Y0030573D02*
X0117945Y0030573D01*
X0118141Y0032172D02*
X0128879Y0032172D01*
X0128879Y0033770D02*
X0117637Y0033770D01*
X0115625Y0035369D02*
X0128879Y0035369D01*
X0128879Y0036967D02*
X0109841Y0036967D01*
X0109841Y0035369D02*
X0113095Y0035369D01*
X0111084Y0033770D02*
X0109841Y0033770D01*
X0108815Y0033080D02*
X0108815Y0033080D01*
X0117533Y0028975D02*
X0128879Y0028975D01*
X0128879Y0027376D02*
X0118141Y0027376D01*
X0118029Y0025778D02*
X0128879Y0025778D01*
X0127845Y0024179D02*
X0117087Y0024179D01*
X0111634Y0024179D02*
X0109841Y0024179D01*
X0109841Y0022581D02*
X0126247Y0022581D01*
X0124648Y0020982D02*
X0109841Y0020982D01*
X0108815Y0020284D02*
X0108815Y0020284D01*
X0109841Y0019384D02*
X0123050Y0019384D01*
X0121451Y0017785D02*
X0109841Y0017785D01*
X0109841Y0016187D02*
X0119853Y0016187D01*
X0118254Y0014588D02*
X0109841Y0014588D01*
X0099175Y0011391D02*
X0009160Y0011391D01*
X0009160Y0009793D02*
X0100774Y0009793D01*
X0097577Y0012990D02*
X0009160Y0012990D01*
X0009160Y0014588D02*
X0095978Y0014588D01*
X0094380Y0016187D02*
X0009160Y0016187D01*
X0009160Y0017785D02*
X0092781Y0017785D01*
X0091182Y0019384D02*
X0039253Y0019384D01*
X0039664Y0020982D02*
X0050610Y0020982D01*
X0050592Y0022581D02*
X0039664Y0022581D01*
X0039664Y0024179D02*
X0050592Y0024179D01*
X0050592Y0025778D02*
X0039664Y0025778D01*
X0039664Y0027376D02*
X0050592Y0027376D01*
X0050592Y0028975D02*
X0039664Y0028975D01*
X0040141Y0032717D02*
X0035360Y0032717D01*
X0035360Y0035501D01*
X0035360Y0035501D01*
X0041704Y0035501D01*
X0041704Y0034280D01*
X0041581Y0033822D01*
X0041344Y0033411D01*
X0041009Y0033076D01*
X0040598Y0032839D01*
X0040141Y0032717D01*
X0041551Y0033770D02*
X0051305Y0033770D01*
X0050592Y0032172D02*
X0030066Y0032172D01*
X0029561Y0030573D02*
X0050592Y0030573D01*
X0058181Y0030573D02*
X0065592Y0030573D01*
X0065592Y0028975D02*
X0058129Y0028975D01*
X0058129Y0027376D02*
X0065592Y0027376D01*
X0065592Y0025778D02*
X0058129Y0025778D01*
X0058129Y0024179D02*
X0065592Y0024179D01*
X0065592Y0022581D02*
X0058129Y0022581D01*
X0058110Y0020982D02*
X0065610Y0020982D01*
X0069176Y0020982D02*
X0069544Y0020982D01*
X0073110Y0020982D02*
X0089584Y0020982D01*
X0088068Y0022581D02*
X0073129Y0022581D01*
X0073129Y0024179D02*
X0087760Y0024179D01*
X0085592Y0025778D02*
X0073129Y0025778D01*
X0069544Y0022581D02*
X0069176Y0022581D01*
X0054544Y0022581D02*
X0054176Y0022581D01*
X0054176Y0020982D02*
X0054544Y0020982D01*
X0059780Y0032172D02*
X0065592Y0032172D01*
X0066305Y0033770D02*
X0061678Y0033770D01*
X0062860Y0035369D02*
X0085592Y0035369D01*
X0085592Y0036967D02*
X0063141Y0036967D01*
X0062721Y0038566D02*
X0086100Y0038566D01*
X0085592Y0033770D02*
X0072416Y0033770D01*
X0073129Y0032172D02*
X0085656Y0032172D01*
X0105089Y0022815D02*
X0105089Y0020313D01*
X0105089Y0020313D01*
X0105089Y0022815D01*
X0105089Y0022815D01*
X0105089Y0022581D02*
X0105089Y0022581D01*
X0105089Y0020982D02*
X0105089Y0020982D01*
X0123444Y0012990D02*
X0124820Y0012990D01*
X0125508Y0011391D02*
X0121845Y0011391D01*
X0120247Y0009793D02*
X0127489Y0009793D01*
X0140763Y0009793D02*
X0183261Y0009793D01*
X0183261Y0011391D02*
X0142345Y0011391D01*
X0143944Y0012990D02*
X0183261Y0012990D01*
X0183261Y0008194D02*
X0009160Y0008194D01*
X0017600Y0019384D02*
X0027026Y0019384D01*
X0026615Y0020982D02*
X0018011Y0020982D01*
X0018011Y0022581D02*
X0026615Y0022581D01*
X0026615Y0024179D02*
X0018011Y0024179D01*
X0018011Y0025778D02*
X0026615Y0025778D01*
X0019522Y0027376D02*
X0018011Y0027376D01*
X0035360Y0033770D02*
X0035360Y0033770D01*
X0035360Y0035369D02*
X0035360Y0035369D01*
X0041704Y0035369D02*
X0055860Y0035369D01*
X0055579Y0036967D02*
X0041704Y0036967D01*
X0041704Y0038566D02*
X0055999Y0038566D01*
X0108815Y0040757D02*
X0108815Y0040757D01*
X0109841Y0040757D01*
X0108815Y0040757D01*
X0108815Y0040757D01*
X0109841Y0040164D02*
X0122602Y0040164D01*
X0121960Y0041763D02*
X0109841Y0041763D01*
X0109841Y0043361D02*
X0121960Y0043361D01*
X0121960Y0044960D02*
X0109841Y0044960D01*
X0109841Y0046558D02*
X0121960Y0046558D01*
X0121960Y0048157D02*
X0109841Y0048157D01*
X0109841Y0049755D02*
X0121115Y0049755D01*
X0126760Y0048157D02*
X0128879Y0048157D01*
X0128879Y0049755D02*
X0127606Y0049755D01*
X0126760Y0046558D02*
X0128879Y0046558D01*
X0128879Y0044960D02*
X0126760Y0044960D01*
X0126760Y0043361D02*
X0128879Y0043361D01*
X0124421Y0038566D02*
X0109841Y0038566D01*
X0109841Y0039731D02*
X0109841Y0039731D01*
X0141155Y0054658D02*
X0142218Y0053595D01*
X0143608Y0053019D01*
X0145112Y0053019D01*
X0146502Y0053595D01*
X0146982Y0054074D01*
X0148024Y0053031D01*
X0161326Y0053031D01*
X0162381Y0054086D01*
X0162381Y0059514D01*
X0161326Y0060568D01*
X0148024Y0060568D01*
X0146982Y0059526D01*
X0146502Y0060005D01*
X0145112Y0060581D01*
X0143608Y0060581D01*
X0142218Y0060005D01*
X0141155Y0058942D01*
X0140579Y0057552D01*
X0140579Y0056048D01*
X0141155Y0054658D01*
X0141262Y0054551D02*
X0138703Y0054551D01*
X0137105Y0056149D02*
X0140579Y0056149D01*
X0140660Y0057748D02*
X0135506Y0057748D01*
X0133908Y0059346D02*
X0141559Y0059346D01*
X0147329Y0063726D02*
X0147664Y0063391D01*
X0148075Y0063154D01*
X0148533Y0063031D01*
X0154491Y0063031D01*
X0154491Y0066616D01*
X0146970Y0066616D01*
X0146970Y0064595D01*
X0147092Y0064137D01*
X0147329Y0063726D01*
X0147091Y0064142D02*
X0131672Y0064142D01*
X0131672Y0062543D02*
X0166804Y0062543D01*
X0166804Y0063303D02*
X0166804Y0060297D01*
X0167955Y0057520D01*
X0170080Y0055394D01*
X0172857Y0054244D01*
X0175863Y0054244D01*
X0178640Y0055394D01*
X0180766Y0057520D01*
X0181916Y0060297D01*
X0181916Y0063303D01*
X0180766Y0066080D01*
X0178640Y0068206D01*
X0175863Y0069356D01*
X0172857Y0069356D01*
X0170080Y0068206D01*
X0167955Y0066080D01*
X0166804Y0063303D01*
X0167152Y0064142D02*
X0162259Y0064142D01*
X0162258Y0064137D02*
X0162381Y0064595D01*
X0162381Y0066616D01*
X0154860Y0066616D01*
X0154860Y0066984D01*
X0162381Y0066984D01*
X0162381Y0069005D01*
X0162258Y0069463D01*
X0162021Y0069874D01*
X0161686Y0070209D01*
X0161275Y0070446D01*
X0160818Y0070568D01*
X0154859Y0070568D01*
X0154859Y0066984D01*
X0154491Y0066984D01*
X0154491Y0066616D01*
X0154859Y0066616D01*
X0154859Y0063031D01*
X0160818Y0063031D01*
X0161275Y0063154D01*
X0161686Y0063391D01*
X0162021Y0063726D01*
X0162258Y0064137D01*
X0162381Y0065740D02*
X0167814Y0065740D01*
X0169214Y0067339D02*
X0162381Y0067339D01*
X0162381Y0068937D02*
X0171847Y0068937D01*
X0176873Y0068937D02*
X0183261Y0068937D01*
X0183261Y0067339D02*
X0179507Y0067339D01*
X0180906Y0065740D02*
X0183261Y0065740D01*
X0183261Y0064142D02*
X0181569Y0064142D01*
X0181916Y0062543D02*
X0183261Y0062543D01*
X0183261Y0060945D02*
X0181916Y0060945D01*
X0181522Y0059346D02*
X0183261Y0059346D01*
X0183261Y0057748D02*
X0180860Y0057748D01*
X0179395Y0056149D02*
X0183261Y0056149D01*
X0183261Y0054551D02*
X0176604Y0054551D01*
X0172117Y0054551D02*
X0162381Y0054551D01*
X0162381Y0056149D02*
X0169325Y0056149D01*
X0167860Y0057748D02*
X0162381Y0057748D01*
X0162381Y0059346D02*
X0167198Y0059346D01*
X0166804Y0060945D02*
X0132309Y0060945D01*
X0131060Y0065740D02*
X0146970Y0065740D01*
X0146970Y0066984D02*
X0154491Y0066984D01*
X0154491Y0070568D01*
X0148533Y0070568D01*
X0148075Y0070446D01*
X0147664Y0070209D01*
X0147329Y0069874D01*
X0147092Y0069463D01*
X0146970Y0069005D01*
X0146970Y0066984D01*
X0146970Y0067339D02*
X0131060Y0067339D01*
X0131524Y0068937D02*
X0146970Y0068937D01*
X0148411Y0070536D02*
X0131672Y0070536D01*
X0131672Y0072134D02*
X0183261Y0072134D01*
X0183261Y0070536D02*
X0160939Y0070536D01*
X0154859Y0070536D02*
X0154491Y0070536D01*
X0154491Y0068937D02*
X0154859Y0068937D01*
X0154859Y0067339D02*
X0154491Y0067339D01*
X0154491Y0065740D02*
X0154859Y0065740D01*
X0154859Y0064142D02*
X0154491Y0064142D01*
X0131672Y0073733D02*
X0183261Y0073733D01*
X0183261Y0075332D02*
X0130855Y0075332D01*
X0126224Y0076930D02*
X0183261Y0076930D01*
X0183261Y0049755D02*
X0162139Y0049755D01*
X0162381Y0048157D02*
X0183261Y0048157D01*
X0183261Y0046558D02*
X0162381Y0046558D01*
X0162381Y0044960D02*
X0183261Y0044960D01*
X0183261Y0043361D02*
X0161656Y0043361D01*
D20*
X0164360Y0031800D03*
X0139360Y0031800D03*
X0124360Y0031800D03*
X0114360Y0031800D03*
X0114360Y0026800D03*
X0099360Y0041800D03*
X0124360Y0051800D03*
X0114360Y0056800D03*
X0103860Y0056300D03*
X0094360Y0056800D03*
X0059360Y0036800D03*
X0079360Y0011800D03*
X0019360Y0011800D03*
X0144360Y0011800D03*
X0144360Y0056800D03*
X0144360Y0071800D03*
X0019360Y0071320D03*
D21*
X0051507Y0064240D02*
X0070640Y0072311D01*
X0089620Y0075240D01*
X0092360Y0075500D01*
X0124260Y0075500D01*
X0127560Y0072200D01*
X0127707Y0071800D01*
X0128660Y0071100D01*
X0128660Y0062300D01*
X0127707Y0061800D01*
X0128660Y0061200D01*
X0148460Y0041400D01*
X0144060Y0037000D01*
X0144060Y0029300D01*
X0146260Y0029300D02*
X0153960Y0037000D01*
X0154675Y0036800D01*
X0148460Y0041400D02*
X0153960Y0046900D01*
X0154675Y0046800D01*
X0133632Y0040757D02*
X0125404Y0040757D01*
X0124360Y0041800D01*
X0124360Y0051800D01*
X0114360Y0056800D02*
X0109360Y0056800D01*
X0105907Y0060253D01*
X0105907Y0061800D01*
X0102260Y0064500D02*
X0102260Y0057900D01*
X0103860Y0056300D01*
X0112813Y0061800D02*
X0113260Y0062300D01*
X0120960Y0062300D01*
X0121014Y0061800D01*
X0105560Y0067800D02*
X0102260Y0064500D01*
X0105560Y0067800D02*
X0105560Y0071100D01*
X0105907Y0071800D01*
X0112813Y0071800D02*
X0113260Y0072200D01*
X0120960Y0072200D01*
X0121014Y0071800D01*
X0091014Y0066800D02*
X0090160Y0066700D01*
X0080260Y0056800D01*
X0070640Y0056169D01*
X0079160Y0056800D01*
X0070360Y0048000D01*
X0036260Y0048000D01*
X0035360Y0048099D01*
X0035360Y0044950D02*
X0036260Y0044700D01*
X0040660Y0044700D01*
X0082680Y0044560D01*
X0086860Y0045800D01*
X0087960Y0041400D02*
X0094994Y0048434D01*
X0105089Y0048434D01*
X0105089Y0045875D02*
X0104460Y0045800D01*
X0097860Y0045800D01*
X0092360Y0040300D01*
X0087960Y0041400D02*
X0036260Y0041400D01*
X0035360Y0041800D01*
X0054360Y0030146D02*
X0059360Y0035146D01*
X0059360Y0036800D01*
X0069360Y0030146D02*
X0070360Y0029300D01*
X0089060Y0029300D01*
X0089360Y0028454D01*
X0092400Y0029080D01*
X0099840Y0035280D01*
X0105089Y0035639D01*
X0104460Y0038100D02*
X0101160Y0038100D01*
X0089360Y0035146D01*
X0090160Y0035900D01*
X0104460Y0038100D02*
X0105089Y0038198D01*
X0105089Y0040757D02*
X0113317Y0040757D01*
X0114360Y0041800D01*
X0105089Y0043316D02*
X0100876Y0043316D01*
X0099360Y0041800D01*
X0110640Y0033080D02*
X0114360Y0036800D01*
X0110640Y0033080D02*
X0105089Y0033080D01*
X0105089Y0030520D02*
X0105560Y0030400D01*
X0112960Y0030400D01*
X0114360Y0031800D01*
X0124360Y0031800D02*
X0125760Y0030400D01*
X0133060Y0030400D01*
X0133632Y0030520D01*
X0137460Y0022700D02*
X0137619Y0022702D01*
X0137779Y0022708D01*
X0137938Y0022717D01*
X0138097Y0022731D01*
X0138256Y0022748D01*
X0138414Y0022769D01*
X0138571Y0022794D01*
X0138728Y0022823D01*
X0138884Y0022855D01*
X0139039Y0022892D01*
X0139194Y0022932D01*
X0139347Y0022976D01*
X0139500Y0023023D01*
X0139651Y0023074D01*
X0139800Y0023129D01*
X0139949Y0023187D01*
X0140096Y0023249D01*
X0140241Y0023315D01*
X0140385Y0023384D01*
X0140527Y0023456D01*
X0140667Y0023532D01*
X0140806Y0023611D01*
X0140942Y0023694D01*
X0141077Y0023779D01*
X0141209Y0023868D01*
X0141339Y0023960D01*
X0141467Y0024056D01*
X0141593Y0024154D01*
X0141716Y0024256D01*
X0141837Y0024360D01*
X0141955Y0024467D01*
X0142070Y0024577D01*
X0142183Y0024690D01*
X0142293Y0024805D01*
X0142400Y0024923D01*
X0142504Y0025044D01*
X0142606Y0025167D01*
X0142704Y0025293D01*
X0142800Y0025421D01*
X0142892Y0025551D01*
X0142981Y0025683D01*
X0143066Y0025818D01*
X0143149Y0025954D01*
X0143228Y0026093D01*
X0143304Y0026233D01*
X0143376Y0026375D01*
X0143445Y0026519D01*
X0143511Y0026664D01*
X0143573Y0026811D01*
X0143631Y0026960D01*
X0143686Y0027109D01*
X0143737Y0027260D01*
X0143784Y0027413D01*
X0143828Y0027566D01*
X0143868Y0027721D01*
X0143905Y0027876D01*
X0143937Y0028032D01*
X0143966Y0028189D01*
X0143991Y0028346D01*
X0144012Y0028504D01*
X0144029Y0028663D01*
X0144043Y0028822D01*
X0144052Y0028981D01*
X0144058Y0029141D01*
X0144060Y0029300D01*
X0146260Y0029300D02*
X0146260Y0023800D01*
X0137460Y0015000D01*
X0134160Y0015000D01*
X0133632Y0015166D01*
X0129600Y0011720D02*
X0129503Y0011722D01*
X0129405Y0011728D01*
X0129309Y0011737D01*
X0129212Y0011751D01*
X0129116Y0011768D01*
X0129021Y0011789D01*
X0128927Y0011813D01*
X0128834Y0011841D01*
X0128742Y0011873D01*
X0128651Y0011909D01*
X0128562Y0011948D01*
X0128474Y0011990D01*
X0128388Y0012036D01*
X0128304Y0012085D01*
X0128222Y0012138D01*
X0128142Y0012194D01*
X0128065Y0012252D01*
X0127989Y0012314D01*
X0127917Y0012379D01*
X0127846Y0012446D01*
X0127779Y0012517D01*
X0127714Y0012589D01*
X0127652Y0012665D01*
X0127594Y0012742D01*
X0127538Y0012822D01*
X0127485Y0012904D01*
X0127436Y0012988D01*
X0127390Y0013074D01*
X0127348Y0013162D01*
X0127309Y0013251D01*
X0127273Y0013342D01*
X0127241Y0013434D01*
X0127213Y0013527D01*
X0127189Y0013621D01*
X0127168Y0013716D01*
X0127151Y0013812D01*
X0127137Y0013909D01*
X0127128Y0014005D01*
X0127122Y0014103D01*
X0127120Y0014200D01*
X0127120Y0015800D01*
X0127122Y0015886D01*
X0127128Y0015973D01*
X0127137Y0016058D01*
X0127151Y0016144D01*
X0127168Y0016228D01*
X0127189Y0016312D01*
X0127214Y0016395D01*
X0127243Y0016476D01*
X0127275Y0016557D01*
X0127311Y0016635D01*
X0127350Y0016712D01*
X0127392Y0016787D01*
X0127438Y0016860D01*
X0127488Y0016931D01*
X0127540Y0017000D01*
X0127595Y0017067D01*
X0127654Y0017130D01*
X0127715Y0017191D01*
X0127778Y0017250D01*
X0127845Y0017305D01*
X0127914Y0017357D01*
X0127985Y0017407D01*
X0128058Y0017453D01*
X0128133Y0017495D01*
X0128210Y0017534D01*
X0128288Y0017570D01*
X0128369Y0017602D01*
X0128450Y0017631D01*
X0128533Y0017656D01*
X0128617Y0017677D01*
X0128701Y0017694D01*
X0128787Y0017708D01*
X0128872Y0017717D01*
X0128959Y0017723D01*
X0129045Y0017725D01*
X0133632Y0017725D01*
X0139360Y0011800D02*
X0144360Y0016800D01*
X0154675Y0016800D01*
X0139360Y0011800D02*
X0139358Y0011784D01*
X0139354Y0011769D01*
X0139347Y0011756D01*
X0139337Y0011743D01*
X0139324Y0011733D01*
X0139311Y0011726D01*
X0139296Y0011722D01*
X0139280Y0011720D01*
X0129600Y0011720D01*
X0118760Y0011700D02*
X0129760Y0022700D01*
X0133060Y0022700D01*
X0133632Y0022843D01*
X0134160Y0022700D01*
X0137460Y0022700D01*
X0137963Y0025402D02*
X0133632Y0025402D01*
X0137963Y0025402D02*
X0138036Y0025404D01*
X0138109Y0025410D01*
X0138182Y0025419D01*
X0138254Y0025433D01*
X0138325Y0025450D01*
X0138395Y0025470D01*
X0138464Y0025495D01*
X0138532Y0025523D01*
X0138598Y0025554D01*
X0138662Y0025589D01*
X0138724Y0025628D01*
X0138785Y0025669D01*
X0138843Y0025714D01*
X0138898Y0025761D01*
X0138952Y0025811D01*
X0139002Y0025865D01*
X0139049Y0025920D01*
X0139094Y0025978D01*
X0139135Y0026039D01*
X0139174Y0026101D01*
X0139209Y0026165D01*
X0139240Y0026231D01*
X0139268Y0026299D01*
X0139293Y0026368D01*
X0139313Y0026438D01*
X0139330Y0026509D01*
X0139344Y0026581D01*
X0139353Y0026654D01*
X0139359Y0026727D01*
X0139361Y0026800D01*
X0139360Y0026800D02*
X0139360Y0031800D01*
X0154360Y0026800D02*
X0154675Y0026800D01*
X0154360Y0026800D02*
X0164360Y0031800D01*
X0114360Y0026800D02*
X0113199Y0027961D01*
X0105089Y0027961D01*
X0105089Y0022843D02*
X0105560Y0022700D01*
X0105089Y0022815D01*
X0113345Y0022815D01*
X0114360Y0021800D01*
X0108860Y0022700D02*
X0105560Y0022700D01*
X0102260Y0011700D02*
X0090160Y0023800D01*
X0090160Y0028200D01*
X0089360Y0028454D01*
X0102260Y0011700D02*
X0118760Y0011700D01*
X0144360Y0056800D02*
X0154675Y0056800D01*
D22*
X0092360Y0040300D03*
X0086860Y0045800D03*
M02*
