G75*
%MOIN*%
%OFA0B0*%
%FSLAX25Y25*%
%IPPOS*%
%LPD*%
%AMOC8*
5,1,8,0,0,1.08239X$1,22.5*
%
%ADD10R,0.04331X0.03937*%
%ADD11R,0.03937X0.04331*%
%ADD12R,0.09449X0.07874*%
%ADD13R,0.09087X0.01969*%
%ADD14C,0.01181*%
%ADD15R,0.05906X0.01575*%
%ADD16R,0.11811X0.03937*%
%ADD17C,0.02165*%
D10*
X0121014Y0061800D03*
X0127707Y0061800D03*
X0127707Y0071800D03*
X0121014Y0071800D03*
X0097707Y0066800D03*
X0091014Y0066800D03*
X0051507Y0064240D03*
X0044814Y0064240D03*
D11*
X0054360Y0023454D03*
X0069360Y0023454D03*
X0069360Y0030146D03*
X0054360Y0030146D03*
X0089360Y0028454D03*
X0089360Y0035146D03*
D12*
X0033140Y0024477D03*
X0011486Y0024477D03*
X0011486Y0059123D03*
X0033140Y0059123D03*
D13*
X0035360Y0048099D03*
X0035360Y0044950D03*
X0035360Y0041800D03*
X0035360Y0038650D03*
X0035360Y0035501D03*
D14*
X0107285Y0060422D02*
X0107285Y0063178D01*
X0107285Y0060422D02*
X0104529Y0060422D01*
X0104529Y0063178D01*
X0107285Y0063178D01*
X0107285Y0061602D02*
X0104529Y0061602D01*
X0104529Y0062782D02*
X0107285Y0062782D01*
X0114191Y0063178D02*
X0114191Y0060422D01*
X0111435Y0060422D01*
X0111435Y0063178D01*
X0114191Y0063178D01*
X0114191Y0061602D02*
X0111435Y0061602D01*
X0111435Y0062782D02*
X0114191Y0062782D01*
X0114191Y0070422D02*
X0114191Y0073178D01*
X0114191Y0070422D02*
X0111435Y0070422D01*
X0111435Y0073178D01*
X0114191Y0073178D01*
X0114191Y0071602D02*
X0111435Y0071602D01*
X0111435Y0072782D02*
X0114191Y0072782D01*
X0107285Y0073178D02*
X0107285Y0070422D01*
X0104529Y0070422D01*
X0104529Y0073178D01*
X0107285Y0073178D01*
X0107285Y0071602D02*
X0104529Y0071602D01*
X0104529Y0072782D02*
X0107285Y0072782D01*
D15*
X0105089Y0048434D03*
X0105089Y0045875D03*
X0105089Y0043316D03*
X0105089Y0040757D03*
X0105089Y0038198D03*
X0105089Y0035639D03*
X0105089Y0033080D03*
X0105089Y0030520D03*
X0105089Y0027961D03*
X0105089Y0025402D03*
X0105089Y0022843D03*
X0105089Y0020284D03*
X0105089Y0017725D03*
X0105089Y0015166D03*
X0133632Y0015166D03*
X0133632Y0017725D03*
X0133632Y0020284D03*
X0133632Y0022843D03*
X0133632Y0025402D03*
X0133632Y0027961D03*
X0133632Y0030520D03*
X0133632Y0033080D03*
X0133632Y0035639D03*
X0133632Y0038198D03*
X0133632Y0040757D03*
X0133632Y0043316D03*
X0133632Y0045875D03*
X0133632Y0048434D03*
D16*
X0154675Y0046800D03*
X0154675Y0036800D03*
X0154675Y0026800D03*
X0154675Y0016800D03*
X0154675Y0056800D03*
X0154675Y0066800D03*
D17*
X0081959Y0069063D02*
X0059321Y0069063D01*
X0059321Y0075559D01*
X0081959Y0075559D01*
X0081959Y0069063D01*
X0081959Y0071227D02*
X0059321Y0071227D01*
X0059321Y0073391D02*
X0081959Y0073391D01*
X0081959Y0075555D02*
X0059321Y0075555D01*
X0059321Y0059417D02*
X0081959Y0059417D01*
X0081959Y0052921D01*
X0059321Y0052921D01*
X0059321Y0059417D01*
X0059321Y0055085D02*
X0081959Y0055085D01*
X0081959Y0057249D02*
X0059321Y0057249D01*
X0059321Y0059413D02*
X0081959Y0059413D01*
M02*
