G75*
%MOIN*%
%OFA0B0*%
%FSLAX25Y25*%
%IPPOS*%
%LPD*%
%AMOC8*
5,1,8,0,0,1.08239X$1,22.5*
%
%ADD10C,0.00300*%
%ADD11C,0.00100*%
%ADD12C,0.01500*%
%ADD13C,0.00500*%
%ADD14C,0.00400*%
%ADD15C,0.00800*%
%ADD16C,0.03482*%
%ADD17R,0.03000X0.01500*%
%ADD18R,0.01500X0.03000*%
D10*
X0026830Y0010630D02*
X0026830Y0013532D01*
X0027798Y0012565D01*
X0028765Y0013532D01*
X0028765Y0010630D01*
X0029777Y0011114D02*
X0030260Y0010630D01*
X0031712Y0010630D01*
X0031712Y0012081D01*
X0031228Y0012565D01*
X0030260Y0012565D01*
X0030260Y0011597D02*
X0031712Y0011597D01*
X0032723Y0011114D02*
X0033207Y0010630D01*
X0034658Y0010630D01*
X0035670Y0010630D02*
X0036637Y0010630D01*
X0036154Y0010630D02*
X0036154Y0012565D01*
X0035670Y0012565D01*
X0034658Y0012565D02*
X0033207Y0012565D01*
X0032723Y0012081D01*
X0032723Y0011114D01*
X0030260Y0011597D02*
X0029777Y0011114D01*
X0036154Y0013532D02*
X0036154Y0014016D01*
X0037634Y0012081D02*
X0038118Y0012565D01*
X0039085Y0012565D01*
X0039569Y0012081D01*
X0039569Y0011597D01*
X0037634Y0011597D01*
X0037634Y0011114D02*
X0037634Y0012081D01*
X0037634Y0011114D02*
X0038118Y0010630D01*
X0039085Y0010630D01*
X0040581Y0010630D02*
X0040581Y0013532D01*
X0042032Y0012565D02*
X0040581Y0011597D01*
X0042032Y0010630D01*
X0044509Y0010630D02*
X0045961Y0010630D01*
X0046444Y0011114D01*
X0045961Y0011597D01*
X0044993Y0011597D01*
X0044509Y0012081D01*
X0044993Y0012565D01*
X0046444Y0012565D01*
X0043520Y0013049D02*
X0043520Y0014016D01*
X0043520Y0013049D02*
X0043036Y0012565D01*
X0050402Y0012081D02*
X0051370Y0012081D01*
X0050402Y0010630D02*
X0050402Y0013532D01*
X0052337Y0013532D01*
X0053349Y0013532D02*
X0055284Y0013532D01*
X0054316Y0013532D02*
X0054316Y0010630D01*
X0056295Y0010630D02*
X0057747Y0010630D01*
X0058230Y0011114D01*
X0058230Y0013049D01*
X0057747Y0013532D01*
X0056295Y0013532D01*
X0056295Y0010630D01*
X0059242Y0010630D02*
X0060209Y0010630D01*
X0059726Y0010630D02*
X0059726Y0013532D01*
X0060209Y0013532D02*
X0059242Y0013532D01*
X0064153Y0012565D02*
X0065120Y0010630D01*
X0066088Y0012565D01*
X0067099Y0012565D02*
X0068067Y0013532D01*
X0068067Y0010630D01*
X0069034Y0010630D02*
X0067099Y0010630D01*
X0070046Y0010630D02*
X0070530Y0010630D01*
X0070530Y0011114D01*
X0070046Y0011114D01*
X0070046Y0010630D01*
X0071519Y0011114D02*
X0073454Y0013049D01*
X0073454Y0011114D01*
X0072970Y0010630D01*
X0072003Y0010630D01*
X0071519Y0011114D01*
X0071519Y0013049D01*
X0072003Y0013532D01*
X0072970Y0013532D01*
X0073454Y0013049D01*
X0138430Y0038332D02*
X0140365Y0038332D01*
X0139398Y0038332D02*
X0139398Y0035430D01*
X0141377Y0035430D02*
X0143312Y0038332D01*
X0144323Y0038332D02*
X0145775Y0038332D01*
X0146258Y0037849D01*
X0146258Y0035914D01*
X0145775Y0035430D01*
X0144323Y0035430D01*
X0144323Y0038332D01*
X0141377Y0038332D02*
X0143312Y0035430D01*
X0142617Y0028412D02*
X0144552Y0025510D01*
X0145563Y0025510D02*
X0147015Y0025510D01*
X0147498Y0025994D01*
X0147498Y0027929D01*
X0147015Y0028412D01*
X0145563Y0028412D01*
X0145563Y0025510D01*
X0142617Y0025510D02*
X0144552Y0028412D01*
X0141605Y0027929D02*
X0141605Y0026961D01*
X0141121Y0026477D01*
X0139670Y0026477D01*
X0139670Y0025510D02*
X0139670Y0028412D01*
X0141121Y0028412D01*
X0141605Y0027929D01*
X0140638Y0026477D02*
X0141605Y0025510D01*
X0141121Y0018492D02*
X0139670Y0018492D01*
X0139670Y0015590D01*
X0141121Y0015590D01*
X0141605Y0016074D01*
X0141605Y0018009D01*
X0141121Y0018492D01*
X0142617Y0018492D02*
X0144552Y0018492D01*
X0143584Y0018492D02*
X0143584Y0015590D01*
X0145563Y0015590D02*
X0145563Y0018492D01*
X0147015Y0018492D01*
X0147498Y0018009D01*
X0147498Y0017041D01*
X0147015Y0016557D01*
X0145563Y0016557D01*
X0146531Y0016557D02*
X0147498Y0015590D01*
X0145775Y0045350D02*
X0144807Y0045350D01*
X0144323Y0045834D01*
X0144323Y0047769D01*
X0144807Y0048252D01*
X0145775Y0048252D01*
X0146258Y0047769D01*
X0143312Y0047769D02*
X0142828Y0048252D01*
X0141860Y0048252D01*
X0141377Y0047769D01*
X0141377Y0045834D01*
X0141860Y0045350D01*
X0142828Y0045350D01*
X0143312Y0045834D01*
X0145775Y0045350D02*
X0146258Y0045834D01*
X0140365Y0046317D02*
X0140365Y0048252D01*
X0138430Y0048252D02*
X0138430Y0046317D01*
X0139398Y0045350D01*
X0140365Y0046317D01*
X0139881Y0056510D02*
X0140365Y0056994D01*
X0139881Y0056510D02*
X0138914Y0056510D01*
X0138430Y0056994D01*
X0138430Y0058929D01*
X0138914Y0059412D01*
X0139881Y0059412D01*
X0140365Y0058929D01*
X0141377Y0059412D02*
X0143312Y0059412D01*
X0142344Y0059412D02*
X0142344Y0056510D01*
X0144323Y0056994D02*
X0144807Y0056510D01*
X0145775Y0056510D01*
X0146258Y0056994D01*
X0146258Y0057477D01*
X0145775Y0057961D01*
X0144807Y0057961D01*
X0144323Y0058445D01*
X0144323Y0058929D01*
X0144807Y0059412D01*
X0145775Y0059412D01*
X0146258Y0058929D01*
X0145775Y0065190D02*
X0144323Y0065190D01*
X0144323Y0068092D01*
X0145775Y0068092D01*
X0146258Y0067609D01*
X0146258Y0065674D01*
X0145775Y0065190D01*
X0143312Y0065190D02*
X0143312Y0068092D01*
X0141377Y0068092D02*
X0143312Y0065190D01*
X0141377Y0065190D02*
X0141377Y0068092D01*
X0140365Y0067609D02*
X0139881Y0068092D01*
X0138914Y0068092D01*
X0138430Y0067609D01*
X0138430Y0065674D01*
X0138914Y0065190D01*
X0139881Y0065190D01*
X0140365Y0065674D01*
X0140365Y0066641D01*
X0139398Y0066641D01*
D11*
X0125458Y0066001D02*
X0125458Y0065000D01*
X0125208Y0064750D01*
X0124707Y0064750D01*
X0124457Y0065000D01*
X0125458Y0066001D01*
X0125208Y0066251D01*
X0124707Y0066251D01*
X0124457Y0066001D01*
X0124457Y0065000D01*
X0123985Y0066001D02*
X0122984Y0065000D01*
X0122984Y0064750D01*
X0122261Y0064750D02*
X0122261Y0066251D01*
X0121510Y0065501D01*
X0122511Y0065501D01*
X0122984Y0066251D02*
X0123985Y0066251D01*
X0123985Y0066001D01*
X0124707Y0067310D02*
X0124457Y0067560D01*
X0125458Y0068561D01*
X0125458Y0067560D01*
X0125208Y0067310D01*
X0124707Y0067310D01*
X0124457Y0067560D02*
X0124457Y0068561D01*
X0124707Y0068811D01*
X0125208Y0068811D01*
X0125458Y0068561D01*
X0123985Y0068561D02*
X0122984Y0067560D01*
X0122984Y0067310D01*
X0122261Y0067310D02*
X0122261Y0068811D01*
X0121510Y0068061D01*
X0122511Y0068061D01*
X0122984Y0068811D02*
X0123985Y0068811D01*
X0123985Y0068561D01*
X0119998Y0067250D02*
X0118997Y0067250D01*
X0118525Y0067250D02*
X0118024Y0067750D01*
X0118274Y0067750D02*
X0117524Y0067750D01*
X0117524Y0067250D02*
X0117524Y0068751D01*
X0118274Y0068751D01*
X0118525Y0068501D01*
X0118525Y0068001D01*
X0118274Y0067750D01*
X0118997Y0068251D02*
X0119497Y0068751D01*
X0119497Y0067250D01*
X0119247Y0066191D02*
X0118997Y0065941D01*
X0119247Y0066191D02*
X0119748Y0066191D01*
X0119998Y0065941D01*
X0119998Y0065691D01*
X0118997Y0064690D01*
X0119998Y0064690D01*
X0118525Y0064690D02*
X0118024Y0065190D01*
X0118274Y0065190D02*
X0117524Y0065190D01*
X0117524Y0064690D02*
X0117524Y0066191D01*
X0118274Y0066191D01*
X0118525Y0065941D01*
X0118525Y0065441D01*
X0118274Y0065190D01*
X0114178Y0064750D02*
X0114178Y0065751D01*
X0113928Y0066001D01*
X0113177Y0066001D01*
X0113177Y0064500D01*
X0113928Y0064500D01*
X0114178Y0064750D01*
X0112705Y0064500D02*
X0111704Y0064500D01*
X0111704Y0066001D01*
X0112705Y0066001D01*
X0112204Y0065251D02*
X0111704Y0065251D01*
X0111231Y0065251D02*
X0110981Y0065000D01*
X0110230Y0065000D01*
X0110230Y0064500D02*
X0110230Y0066001D01*
X0110981Y0066001D01*
X0111231Y0065751D01*
X0111231Y0065251D01*
X0110731Y0065000D02*
X0111231Y0064500D01*
X0108718Y0064940D02*
X0107717Y0064940D01*
X0108718Y0065941D01*
X0108718Y0066191D01*
X0108468Y0066441D01*
X0107967Y0066441D01*
X0107717Y0066191D01*
X0107245Y0066191D02*
X0106994Y0066441D01*
X0106244Y0066441D01*
X0106244Y0064940D01*
X0106994Y0064940D01*
X0107245Y0065190D01*
X0107245Y0066191D01*
X0106994Y0067500D02*
X0107245Y0067750D01*
X0107245Y0068751D01*
X0106994Y0069001D01*
X0106244Y0069001D01*
X0106244Y0067500D01*
X0106994Y0067500D01*
X0107717Y0067500D02*
X0108718Y0067500D01*
X0108217Y0067500D02*
X0108217Y0069001D01*
X0107717Y0068501D01*
X0110230Y0068311D02*
X0110230Y0067310D01*
X0110481Y0067060D01*
X0110981Y0067060D01*
X0111231Y0067310D01*
X0111231Y0067811D01*
X0110731Y0067811D01*
X0111231Y0068311D02*
X0110981Y0068561D01*
X0110481Y0068561D01*
X0110230Y0068311D01*
X0111704Y0068561D02*
X0111704Y0067060D01*
X0111704Y0067560D02*
X0112454Y0067560D01*
X0112705Y0067811D01*
X0112705Y0068311D01*
X0112454Y0068561D01*
X0111704Y0068561D01*
X0113177Y0068561D02*
X0114178Y0067060D01*
X0114178Y0068561D01*
X0113177Y0068561D02*
X0113177Y0067060D01*
X0112705Y0067060D02*
X0112204Y0067560D01*
X0097071Y0062611D02*
X0096070Y0062611D01*
X0096070Y0061110D01*
X0095598Y0061110D02*
X0095598Y0061861D01*
X0095347Y0062111D01*
X0094597Y0062111D01*
X0094597Y0061110D01*
X0094124Y0061360D02*
X0093874Y0061110D01*
X0093374Y0061110D01*
X0093123Y0061360D01*
X0094124Y0062361D01*
X0094124Y0061360D01*
X0093123Y0061360D02*
X0093123Y0062361D01*
X0093374Y0062611D01*
X0093874Y0062611D01*
X0094124Y0062361D01*
X0092651Y0061110D02*
X0091650Y0061110D01*
X0092151Y0061110D02*
X0092151Y0062611D01*
X0091650Y0062111D01*
X0096070Y0061861D02*
X0096570Y0061861D01*
X0108570Y0056671D02*
X0109571Y0056671D01*
X0110043Y0056671D02*
X0111044Y0055170D01*
X0110043Y0055170D02*
X0111044Y0056671D01*
X0109071Y0056671D02*
X0109071Y0055170D01*
X0085170Y0039093D02*
X0084670Y0038342D01*
X0084169Y0039093D01*
X0083669Y0038342D02*
X0085170Y0038342D01*
X0084920Y0037870D02*
X0085170Y0037620D01*
X0085170Y0037119D01*
X0084920Y0036869D01*
X0083919Y0037870D01*
X0084920Y0037870D01*
X0083919Y0037870D02*
X0083669Y0037620D01*
X0083669Y0037119D01*
X0083919Y0036869D01*
X0084920Y0036869D01*
X0084920Y0036397D02*
X0085170Y0036146D01*
X0085170Y0035646D01*
X0084920Y0035396D01*
X0083919Y0036397D01*
X0084920Y0036397D01*
X0083919Y0036397D02*
X0083669Y0036146D01*
X0083669Y0035646D01*
X0083919Y0035396D01*
X0084920Y0035396D01*
X0085170Y0034923D02*
X0085170Y0033923D01*
X0085170Y0034423D02*
X0083669Y0034423D01*
X0084169Y0033923D01*
X0082750Y0033643D02*
X0081249Y0033643D01*
X0081249Y0034394D01*
X0081499Y0034644D01*
X0082000Y0034644D01*
X0082250Y0034394D01*
X0082250Y0033643D01*
X0082250Y0034144D02*
X0082750Y0034644D01*
X0082500Y0035117D02*
X0082750Y0035367D01*
X0082750Y0035867D01*
X0082500Y0036118D01*
X0082250Y0036118D01*
X0082000Y0035867D01*
X0082000Y0035617D01*
X0082000Y0035867D02*
X0081749Y0036118D01*
X0081499Y0036118D01*
X0081249Y0035867D01*
X0081249Y0035367D01*
X0081499Y0035117D01*
X0064420Y0028637D02*
X0064420Y0028137D01*
X0064169Y0027664D02*
X0065170Y0027664D01*
X0065170Y0026914D01*
X0064920Y0026663D01*
X0064169Y0026663D01*
X0063919Y0026191D02*
X0064920Y0025190D01*
X0065170Y0025190D01*
X0065170Y0024704D02*
X0065170Y0024454D01*
X0064920Y0024454D01*
X0064920Y0024704D01*
X0065170Y0024704D01*
X0065170Y0023731D02*
X0063669Y0023731D01*
X0064420Y0022980D01*
X0064420Y0023981D01*
X0063669Y0025190D02*
X0063669Y0026191D01*
X0063919Y0026191D01*
X0063669Y0028137D02*
X0063669Y0029138D01*
X0063669Y0028137D02*
X0065170Y0028137D01*
X0060150Y0027887D02*
X0059900Y0027637D01*
X0060150Y0027887D02*
X0060150Y0028387D01*
X0059900Y0028638D01*
X0059650Y0028638D01*
X0059400Y0028387D01*
X0059400Y0028137D01*
X0059400Y0028387D02*
X0059149Y0028638D01*
X0058899Y0028638D01*
X0058649Y0028387D01*
X0058649Y0027887D01*
X0058899Y0027637D01*
X0058899Y0027164D02*
X0058649Y0026914D01*
X0058649Y0026414D01*
X0058899Y0026163D01*
X0059900Y0026163D01*
X0060150Y0026414D01*
X0060150Y0026914D01*
X0059900Y0027164D01*
X0048930Y0026931D02*
X0047429Y0026931D01*
X0047929Y0026430D01*
X0048680Y0025944D02*
X0048930Y0025944D01*
X0048930Y0025694D01*
X0048680Y0025694D01*
X0048680Y0025944D01*
X0048930Y0026430D02*
X0048930Y0027431D01*
X0048680Y0027903D02*
X0048930Y0028154D01*
X0048930Y0028904D01*
X0047929Y0028904D01*
X0048180Y0029377D02*
X0048180Y0029877D01*
X0048930Y0029377D02*
X0047429Y0029377D01*
X0047429Y0030378D01*
X0047929Y0027903D02*
X0048680Y0027903D01*
X0048680Y0025221D02*
X0048930Y0024971D01*
X0048930Y0024471D01*
X0048680Y0024220D01*
X0047679Y0025221D01*
X0048680Y0025221D01*
X0047679Y0025221D02*
X0047429Y0024971D01*
X0047429Y0024471D01*
X0047679Y0024220D01*
X0048680Y0024220D01*
X0074889Y0024667D02*
X0075640Y0023917D01*
X0075640Y0024918D01*
X0076390Y0024667D02*
X0074889Y0024667D01*
X0075139Y0023444D02*
X0074889Y0023194D01*
X0074889Y0022694D01*
X0075139Y0022443D01*
X0076140Y0022443D01*
X0076390Y0022694D01*
X0076390Y0023194D01*
X0076140Y0023444D01*
X0110955Y0008952D02*
X0111456Y0008952D01*
X0111206Y0008952D02*
X0111206Y0007451D01*
X0111456Y0007451D02*
X0110955Y0007451D01*
X0111938Y0007701D02*
X0112188Y0007451D01*
X0112688Y0007451D01*
X0112939Y0007701D01*
X0113411Y0007451D02*
X0114412Y0007451D01*
X0113911Y0007451D02*
X0113911Y0008952D01*
X0113411Y0008452D01*
X0112939Y0008702D02*
X0112688Y0008952D01*
X0112188Y0008952D01*
X0111938Y0008702D01*
X0111938Y0007701D01*
X0115851Y0007567D02*
X0115851Y0009068D01*
X0116852Y0009068D01*
X0117325Y0009068D02*
X0118325Y0009068D01*
X0117825Y0009068D02*
X0117825Y0007567D01*
X0118798Y0007567D02*
X0119799Y0008568D01*
X0119799Y0008818D01*
X0119549Y0009068D01*
X0119048Y0009068D01*
X0118798Y0008818D01*
X0118798Y0007567D02*
X0119799Y0007567D01*
X0120271Y0007817D02*
X0120521Y0007567D01*
X0121022Y0007567D01*
X0121272Y0007817D01*
X0121272Y0008068D01*
X0121022Y0008318D01*
X0120772Y0008318D01*
X0121022Y0008318D02*
X0121272Y0008568D01*
X0121272Y0008818D01*
X0121022Y0009068D01*
X0120521Y0009068D01*
X0120271Y0008818D01*
X0121744Y0008818D02*
X0121995Y0009068D01*
X0122495Y0009068D01*
X0122745Y0008818D01*
X0122745Y0008568D01*
X0121744Y0007567D01*
X0122745Y0007567D01*
X0123218Y0007567D02*
X0123218Y0009068D01*
X0123968Y0009068D01*
X0124218Y0008818D01*
X0124218Y0008318D01*
X0123968Y0008068D01*
X0123218Y0008068D01*
X0123718Y0008068D02*
X0124218Y0007567D01*
X0124691Y0007567D02*
X0124691Y0009068D01*
X0124691Y0007567D02*
X0125692Y0007567D01*
X0116352Y0008318D02*
X0115851Y0008318D01*
X0065784Y0061870D02*
X0064784Y0061870D01*
X0064311Y0061870D02*
X0063310Y0061870D01*
X0063310Y0063371D01*
X0064784Y0062871D02*
X0065284Y0063371D01*
X0065284Y0061870D01*
X0051977Y0069670D02*
X0051977Y0071171D01*
X0052978Y0071171D01*
X0052477Y0070421D02*
X0051977Y0070421D01*
X0051505Y0070671D02*
X0051505Y0069670D01*
X0050754Y0069670D01*
X0050504Y0069920D01*
X0050504Y0070671D01*
X0049531Y0071171D02*
X0049030Y0070671D01*
X0049531Y0071171D02*
X0049531Y0069670D01*
X0050031Y0069670D02*
X0049030Y0069670D01*
X0048544Y0069670D02*
X0048294Y0069670D01*
X0048294Y0069920D01*
X0048544Y0069920D01*
X0048544Y0069670D01*
X0047821Y0069920D02*
X0047571Y0069670D01*
X0047071Y0069670D01*
X0046821Y0069920D01*
X0047821Y0070921D01*
X0047821Y0069920D01*
X0046821Y0069920D02*
X0046821Y0070921D01*
X0047071Y0071171D01*
X0047571Y0071171D01*
X0047821Y0070921D01*
X0045038Y0070861D02*
X0044788Y0071111D01*
X0044287Y0071111D01*
X0044037Y0070861D01*
X0043565Y0070861D02*
X0043314Y0071111D01*
X0042814Y0071111D01*
X0042564Y0070861D01*
X0042564Y0069860D01*
X0042814Y0069610D01*
X0043314Y0069610D01*
X0043565Y0069860D01*
X0044037Y0069610D02*
X0045038Y0070611D01*
X0045038Y0070861D01*
X0045038Y0069610D02*
X0044037Y0069610D01*
X0093390Y0071340D02*
X0093640Y0071090D01*
X0094141Y0071090D01*
X0094391Y0071340D01*
X0094863Y0071090D02*
X0095864Y0071090D01*
X0095364Y0071090D02*
X0095364Y0072591D01*
X0094863Y0072091D01*
X0094391Y0072341D02*
X0094141Y0072591D01*
X0093640Y0072591D01*
X0093390Y0072341D01*
X0093390Y0071340D01*
X0108570Y0077490D02*
X0108570Y0078991D01*
X0109321Y0078991D01*
X0109571Y0078741D01*
X0109571Y0078241D01*
X0109321Y0077990D01*
X0108570Y0077990D01*
X0109071Y0077990D02*
X0109571Y0077490D01*
X0110043Y0077490D02*
X0111044Y0078991D01*
X0110043Y0078991D02*
X0111044Y0077490D01*
D12*
X0094360Y0066910D02*
X0094360Y0066690D01*
X0048160Y0064350D02*
X0048160Y0064130D01*
X0054250Y0026800D02*
X0054470Y0026800D01*
X0069250Y0026800D02*
X0069470Y0026800D01*
D13*
X0037470Y0026446D02*
X0037470Y0057154D01*
X0037470Y0054398D02*
X0037470Y0050068D01*
X0027628Y0057154D02*
X0016998Y0057154D01*
X0001250Y0057154D02*
X0001250Y0026446D01*
X0016998Y0026446D02*
X0027628Y0026446D01*
X0037470Y0029202D02*
X0037470Y0033532D01*
D14*
X0025383Y0059464D02*
X0020779Y0059464D01*
X0020779Y0061766D01*
X0021547Y0062533D01*
X0023081Y0062533D01*
X0023849Y0061766D01*
X0023849Y0059464D01*
X0024616Y0064068D02*
X0021547Y0064068D01*
X0020779Y0064835D01*
X0020779Y0066370D01*
X0021547Y0067137D01*
X0024616Y0067137D02*
X0025383Y0066370D01*
X0025383Y0064835D01*
X0024616Y0064068D01*
D15*
X0108691Y0063611D02*
X0108691Y0061800D01*
X0109911Y0062720D01*
X0108691Y0061800D02*
X0108691Y0059989D01*
X0109911Y0060940D02*
X0108752Y0061700D01*
X0108691Y0069989D02*
X0108691Y0071800D01*
X0109911Y0072720D01*
X0108691Y0073611D02*
X0108691Y0071800D01*
X0108752Y0071700D02*
X0109911Y0070940D01*
X0109124Y0051879D02*
X0109124Y0011721D01*
X0129596Y0011721D01*
X0129596Y0051879D01*
X0109124Y0051879D01*
D16*
X0125758Y0015265D03*
D17*
X0089360Y0031800D03*
D18*
X0124360Y0061800D03*
X0124360Y0071800D03*
M02*
