%
M48
M72
T01C0.0236
T02C0.0240
T03C0.0394
T04C0.0551
%
T01
X1936Y1180
X7936Y1180
X11436Y2680
X11436Y3180
X12436Y3180
X13936Y3180
X16436Y3180
X12436Y5180
X11436Y5680
X10386Y5630
X9436Y5680
X9936Y4180
X5936Y3680
X1936Y7132
X14436Y7180
X14436Y5680
X14436Y1180
T02
X9236Y4030
X8686Y4580
T03
X2330Y5046
X2330Y3314
T04
X17436Y2180
X17436Y6180
M30
