G75*
%MOIN*%
%OFA0B0*%
%FSLAX25Y25*%
%IPPOS*%
%LPD*%
%AMOC8*
5,1,8,0,0,1.08239X$1,22.5*
%
%ADD10R,0.05131X0.04737*%
%ADD11R,0.04737X0.05131*%
%ADD12R,0.10249X0.08674*%
%ADD13R,0.09887X0.02769*%
%ADD14C,0.04737*%
%ADD15C,0.01421*%
%ADD16R,0.06706X0.02375*%
%ADD17R,0.12611X0.04737*%
%ADD18C,0.06312*%
%ADD19R,0.04737X0.04737*%
%ADD20C,0.04762*%
%ADD21C,0.04800*%
D10*
X0121014Y0061800D03*
X0127707Y0061800D03*
X0127707Y0071800D03*
X0121014Y0071800D03*
X0097707Y0066800D03*
X0091014Y0066800D03*
X0051507Y0064240D03*
X0044814Y0064240D03*
D11*
X0089360Y0035146D03*
X0089360Y0028454D03*
X0069360Y0030146D03*
X0054360Y0030146D03*
X0054360Y0023454D03*
X0069360Y0023454D03*
D12*
X0033140Y0024477D03*
X0011486Y0024477D03*
X0011486Y0059123D03*
X0033140Y0059123D03*
D13*
X0035360Y0048099D03*
X0035360Y0044950D03*
X0035360Y0041800D03*
X0035360Y0038650D03*
X0035360Y0035501D03*
D14*
X0023297Y0033139D03*
X0023297Y0050461D03*
D15*
X0107565Y0060142D02*
X0107565Y0063458D01*
X0107565Y0060142D02*
X0104249Y0060142D01*
X0104249Y0063458D01*
X0107565Y0063458D01*
X0107565Y0061562D02*
X0104249Y0061562D01*
X0104249Y0062982D02*
X0107565Y0062982D01*
X0114471Y0063458D02*
X0114471Y0060142D01*
X0111155Y0060142D01*
X0111155Y0063458D01*
X0114471Y0063458D01*
X0114471Y0061562D02*
X0111155Y0061562D01*
X0111155Y0062982D02*
X0114471Y0062982D01*
X0114471Y0070142D02*
X0114471Y0073458D01*
X0114471Y0070142D02*
X0111155Y0070142D01*
X0111155Y0073458D01*
X0114471Y0073458D01*
X0114471Y0071562D02*
X0111155Y0071562D01*
X0111155Y0072982D02*
X0114471Y0072982D01*
X0107565Y0073458D02*
X0107565Y0070142D01*
X0104249Y0070142D01*
X0104249Y0073458D01*
X0107565Y0073458D01*
X0107565Y0071562D02*
X0104249Y0071562D01*
X0104249Y0072982D02*
X0107565Y0072982D01*
D16*
X0105089Y0048434D03*
X0105089Y0045875D03*
X0105089Y0043316D03*
X0105089Y0040757D03*
X0105089Y0038198D03*
X0105089Y0035639D03*
X0105089Y0033080D03*
X0105089Y0030520D03*
X0105089Y0027961D03*
X0105089Y0025402D03*
X0105089Y0022843D03*
X0105089Y0020284D03*
X0105089Y0017725D03*
X0105089Y0015166D03*
X0133632Y0015166D03*
X0133632Y0017725D03*
X0133632Y0020284D03*
X0133632Y0022843D03*
X0133632Y0025402D03*
X0133632Y0027961D03*
X0133632Y0030520D03*
X0133632Y0033080D03*
X0133632Y0035639D03*
X0133632Y0038198D03*
X0133632Y0040757D03*
X0133632Y0043316D03*
X0133632Y0045875D03*
X0133632Y0048434D03*
D17*
X0154675Y0046800D03*
X0154675Y0036800D03*
X0154675Y0026800D03*
X0154675Y0016800D03*
X0154675Y0056800D03*
X0154675Y0066800D03*
D18*
X0174360Y0061800D03*
X0174360Y0021800D03*
D19*
X0070640Y0060303D03*
X0070640Y0068177D03*
D20*
X0019360Y0011800D03*
X0079360Y0011800D03*
X0114360Y0026800D03*
X0114360Y0031800D03*
X0124360Y0031800D03*
X0139360Y0031800D03*
X0164360Y0031800D03*
X0124360Y0051800D03*
X0114360Y0056800D03*
X0103860Y0056300D03*
X0094360Y0056800D03*
X0099360Y0041800D03*
X0059360Y0036800D03*
X0019360Y0071320D03*
X0144360Y0071800D03*
X0144360Y0056800D03*
X0144360Y0011800D03*
D21*
X0092360Y0040300D03*
X0086860Y0045800D03*
M02*
